<?xml version="1.0" encoding="UTF-8"?>
<svg xmlns="http://www.w3.org/2000/svg" xmlns:xlink="http://www.w3.org/1999/xlink" width="2185" height="2183" viewBox="0 0 2185 2183">
<path fill-rule="nonzero" fill="rgb(89.0625%, 73.242188%, 61.914062%)" fill-opacity="1" d="M 2184.070312 2180.695312 C 2183.839844 2181.402344 2183.53125 2181.992188 2183.128906 2182.480469 L 0.535156 2182.480469 C -0.351562 2179.359375 0.3125 2176.089844 0.308594 2172.917969 C 0.261719 1453.039062 0.261719 733.160156 0.28125 13.28125 C 0.28125 -1.359375 -1.183594 0.21875 13.390625 0.21875 C 733.269531 0.199219 1453.148438 0.199219 2173.03125 0.261719 C 2176.699219 0.261719 2180.519531 -0.640625 2184.070312 1.050781 L 2184.070312 2180.695312 "/>
<path fill-rule="nonzero" fill="rgb(21.18988%, 9.397888%, 17.259216%)" fill-opacity="1" d="M 1079.589844 2062.246094 C 1068.539062 2058.425781 1057.46875 2054.695312 1046.480469 2050.730469 C 1042.761719 2049.390625 1039.191406 2049.03125 1035.378906 2050.058594 C 974.386719 2066.519531 912.320312 2073.898438 849.148438 2071.6875 C 848.410156 2071.660156 847.652344 2071.910156 846.910156 2072.035156 C 802.71875 2065.902344 771.5 2038.464844 742.015625 2008.167969 C 723.75 1988.382812 704.652344 1969.289062 687.378906 1948.664062 C 640.742188 1892.980469 625.484375 1827.3125 629.128906 1756.296875 C 631.261719 1714.601562 641.121094 1674.433594 657.550781 1636.171875 C 669.253906 1608.914062 671.035156 1580.355469 672.621094 1551.535156 C 675.628906 1497.042969 691.679688 1445.722656 711.527344 1395.488281 C 715.191406 1386.222656 713.84375 1382.707031 705.3125 1378.328125 C 671.394531 1360.929688 639.257812 1340.871094 613.949219 1311.566406 C 576.660156 1268.398438 564.449219 1217.875 569.714844 1162.078125 C 574.628906 1110.011719 595.308594 1063.199219 618.207031 1017.261719 C 637.460938 978.628906 649.195312 937.429688 661.808594 896.488281 C 663.414062 891.28125 662.59375 886.21875 660.886719 880.910156 C 648.8125 843.441406 628.050781 810.128906 610.550781 775.28125 C 579.738281 713.941406 546.8125 653.671875 516.953125 591.839844 C 490.511719 537.109375 473.121094 480.339844 477.367188 418.578125 C 479.644531 385.460938 487.289062 353.410156 496.261719 321.621094 C 497.636719 316.761719 498.683594 312.070312 497.71875 307.101562 C 488.5625 259.921875 508.101562 225.199219 545.316406 198.46875 C 556.453125 190.460938 568.941406 184.78125 582.054688 180.589844 C 608.144531 172.199219 632.171875 178.058594 655.15625 191.179688 C 681.390625 206.160156 701.714844 227.640625 719.699219 251.328125 C 762.886719 308.238281 804.21875 366.410156 836.574219 430.390625 C 858.96875 474.679688 870.296875 522.148438 876.402344 571.03125 C 879.074219 592.46875 881.960938 613.929688 881.300781 635.648438 C 881.21875 638.328125 882.027344 640.910156 882.378906 643.53125 C 883.214844 649.808594 885.550781 650.851562 891.4375 647.828125 C 900.671875 643.109375 908.085938 634.109375 919.859375 635.011719 C 943.175781 624.429688 965.84375 612.328125 990.601562 605.179688 C 1006.519531 599.851562 1021.820312 601.390625 1036.53125 609.351562 C 1037.53125 609.890625 1038.679688 610.238281 1039.53125 610.96875 C 1051.78125 621.410156 1060.828125 635.628906 1076.730469 641.871094 C 1079.628906 643.011719 1081.210938 647.359375 1081.179688 650.730469 C 1081.078125 661.488281 1088.050781 664.609375 1096.769531 666.878906 C 1108.480469 669.949219 1120.070312 673.539062 1131.378906 677.898438 C 1137.480469 680.238281 1141.941406 680.109375 1141.109375 671.640625 C 1139.960938 660 1147.910156 649.070312 1143.78125 637.191406 C 1140.550781 575.238281 1140.019531 513.238281 1157.160156 453.03125 C 1183.308594 361.140625 1228.359375 279.378906 1294.820312 210.230469 C 1313.640625 190.671875 1336.480469 176.230469 1362.320312 167.058594 C 1394.269531 152.96875 1423.71875 157.320312 1450.488281 179.441406 C 1460.789062 187.949219 1469.480469 198.109375 1476.640625 209.390625 C 1498.308594 243.53125 1509.160156 280.941406 1510.851562 321.320312 C 1512.789062 368 1506.648438 413.75 1496.679688 459.148438 C 1483.480469 519.210938 1474.148438 580.039062 1460.828125 640.078125 C 1450.839844 685.148438 1436.039062 728.519531 1417.269531 770.601562 C 1402.421875 803.898438 1386.75 836.839844 1371.179688 869.808594 C 1367.910156 876.730469 1366.96875 883.359375 1369.140625 890.691406 C 1390.53125 962.699219 1405.628906 1036.558594 1435.230469 1106.140625 C 1453.460938 1148.960938 1458.519531 1193.980469 1450.820312 1240.144531 C 1441.390625 1296.621094 1408.308594 1337.21875 1363.441406 1369.765625 C 1348.039062 1380.9375 1331.570312 1390.480469 1314.339844 1398.523438 C 1307 1401.945312 1304.808594 1405.476562 1308.628906 1413.347656 C 1322.460938 1441.839844 1329.878906 1472.632812 1339.550781 1502.609375 C 1351.921875 1540.921875 1363.671875 1579.476562 1384.371094 1614.429688 C 1391.351562 1626.203125 1399.710938 1637.058594 1407.871094 1648.019531 C 1470.339844 1731.855469 1464.679688 1854.414062 1402.730469 1934.300781 C 1390.671875 1949.847656 1379.949219 1965.773438 1372.609375 1984.742188 C 1361.570312 2013.265625 1337.398438 2030.621094 1310.738281 2044.273438 C 1285.75 2057.058594 1258.5 2061.90625 1231.421875 2067.476562 C 1218.03125 2070.230469 1204.429688 2070.316406 1190.929688 2071.679688 C 1153.398438 2073.511719 1116.191406 2071.511719 1079.589844 2062.246094 "/>
<path fill-rule="nonzero" fill="rgb(92.96875%, 94.53125%, 84.764099%)" fill-opacity="1" d="M 1120.328125 1718.050781 C 1120.660156 1706.832031 1127.058594 1698.171875 1132.898438 1689.464844 C 1149.328125 1664.949219 1165.679688 1640.457031 1171.769531 1610.839844 C 1176.589844 1587.355469 1175.378906 1564.261719 1167.570312 1541.5625 C 1167.371094 1540.984375 1166.46875 1540.414062 1165.800781 1540.273438 C 1163.96875 1539.886719 1164.828125 1541.605469 1164.378906 1542.324219 C 1166.789062 1561.675781 1163.628906 1580.011719 1154.421875 1597.269531 C 1150.308594 1604.96875 1147.308594 1613.246094 1142.878906 1620.742188 C 1139.648438 1626.214844 1135.238281 1631.085938 1128.378906 1625.042969 C 1124.828125 1621.921875 1123.070312 1623.566406 1121.648438 1626.878906 C 1109.519531 1655.078125 1095.601562 1682.820312 1091.539062 1713.613281 C 1089.320312 1730.378906 1093.640625 1746.726562 1102.5 1761.574219 C 1112.078125 1777.65625 1109.511719 1789.480469 1094.128906 1801.628906 C 1087.101562 1802.089844 1085.628906 1796.515625 1083.460938 1791.722656 C 1079.589844 1783.183594 1078 1773.625 1072.589844 1766.109375 C 1071.121094 1766.03125 1070.398438 1766.382812 1070.210938 1767.226562 C 1064.890625 1791.003906 1056.21875 1813.589844 1046.019531 1835.648438 C 1042.308594 1844.003906 1036.96875 1851.390625 1031.878906 1858.867188 C 1025.328125 1868.515625 1019.96875 1868.488281 1012.191406 1859.390625 C 1008.75 1855.375 1005.601562 1851.101562 1003.050781 1846.4375 C 1000.210938 1838.28125 991.976562 1835.285156 986.6875 1829.4375 C 969.03125 1809.914062 949.167969 1793 926.667969 1779.109375 C 913.257812 1770.828125 913.433594 1769.757812 917.3125 1754.425781 C 921.484375 1737.941406 914.902344 1722.863281 909.453125 1708.25 C 902.179688 1688.765625 891.476562 1670.804688 879.230469 1653.855469 C 875.027344 1648.042969 870.5 1642.328125 868.679688 1635.140625 C 865.1875 1626.878906 864.769531 1618.394531 866.8125 1609.699219 C 867.851562 1605.257812 868.511719 1600.777344 866.066406 1596.503906 C 853.175781 1573.992188 840.65625 1551.277344 830.921875 1527.191406 C 829.535156 1526.449219 828.195312 1526.402344 826.921875 1527.453125 C 809.144531 1583.089844 826.429688 1630.929688 859.609375 1675.324219 C 865.941406 1683.800781 872.402344 1692.234375 876.992188 1701.867188 C 876.992188 1708.433594 872.046875 1707.53125 868.308594 1706.96875 C 862.765625 1706.144531 860.996094 1707.003906 861.96875 1713.269531 C 865.417969 1735.464844 856.484375 1743.855469 834.097656 1744.390625 C 800.847656 1745.1875 780.554688 1725.363281 761.722656 1702.363281 C 755.976562 1695.339844 752.996094 1685.167969 740.453125 1687.265625 C 737.078125 1687.828125 734.109375 1683.910156 733.648438 1680.539062 C 730.789062 1659.753906 713.914062 1642.40625 720.335938 1618.390625 C 714.050781 1621.566406 714.859375 1629.480469 708.320312 1629.296875 C 697.515625 1570.585938 707.664062 1513.773438 724.40625 1457.683594 C 729.371094 1441.03125 735.578125 1424.734375 741.566406 1408.402344 C 746.457031 1395.066406 746.683594 1395.15625 760.386719 1401.375 C 763.703125 1405.214844 763.121094 1409.382812 761.460938 1413.644531 C 755.953125 1419.835938 757.980469 1426.347656 760.863281 1432.746094 C 769.777344 1452.507812 783.652344 1468.636719 799.605469 1482.808594 C 819.078125 1500.101562 840.9375 1513.679688 866.621094 1520.007812 C 876.804688 1522.515625 876.933594 1522.269531 875.554688 1512.144531 C 873.605469 1497.789062 880.078125 1490.410156 894.472656 1490.628906 C 897.136719 1490.671875 899.808594 1490.847656 902.378906 1491.519531 C 928.816406 1498.433594 955.8125 1497.136719 982.730469 1497.128906 C 990.28125 1497.125 995.617188 1496.105469 996.574219 1486.4375 C 997.53125 1476.757812 1004.488281 1472.628906 1017.46875 1474.753906 C 1048.910156 1479.914062 1076.058594 1492.863281 1093.960938 1520.894531 C 1096.511719 1524.886719 1097.5 1532.261719 1102.398438 1531.847656 C 1107.769531 1531.390625 1108.691406 1524.03125 1110.660156 1519.292969 C 1114.738281 1509.492188 1114.289062 1499.425781 1111.898438 1489.152344 C 1108.289062 1473.550781 1113.03125 1469.425781 1128.601562 1474.125 C 1172.261719 1487.3125 1211.691406 1509.140625 1249.75 1533.730469 C 1253.621094 1536.226562 1256.960938 1539.273438 1259.738281 1542.945312 C 1274.550781 1554.886719 1284.820312 1570.203125 1292.738281 1587.273438 C 1296.78125 1595.976562 1299.539062 1605.039062 1299.628906 1614.679688 C 1299.671875 1619.050781 1301.230469 1624.609375 1296.140625 1627.003906 C 1290.75 1629.527344 1288.238281 1624.175781 1285.050781 1621.300781 C 1279.300781 1621.457031 1281.671875 1625.675781 1281.988281 1628.1875 C 1283.21875 1637.789062 1282.019531 1647.167969 1279.371094 1656.316406 C 1275.828125 1668.527344 1269.488281 1670.273438 1259.679688 1662.164062 C 1251.5 1655.402344 1250.460938 1655.753906 1246.820312 1665.796875 C 1244.011719 1673.523438 1244.179688 1683.816406 1231 1682.382812 C 1228.25 1682.082031 1227.570312 1687.800781 1226.289062 1690.878906 C 1219.289062 1707.722656 1208.261719 1721.511719 1194.550781 1733.304688 C 1192.53125 1735.03125 1190.308594 1736.503906 1188.050781 1737.910156 C 1178.078125 1744.128906 1166.699219 1747.296875 1157 1740.277344 C 1147.429688 1733.347656 1148.300781 1721.117188 1148.898438 1710.128906 C 1149.039062 1707.632812 1151.328125 1705.332031 1149.261719 1702 C 1141.621094 1704.820312 1136.339844 1710.785156 1130.441406 1715.984375 C 1127.628906 1718.464844 1125.21875 1723.109375 1120.078125 1720.023438 C 1119.890625 1719.90625 1119.828125 1719.394531 1119.878906 1719.085938 C 1119.929688 1718.726562 1120.171875 1718.394531 1120.328125 1718.050781 "/>
<path fill-rule="nonzero" fill="rgb(95.701599%, 95.3125%, 93.359375%)" fill-opacity="1" d="M 1323.140625 876.890625 C 1348.109375 936.851562 1355.628906 1002 1378.320312 1062.640625 C 1387.460938 1087.070312 1397.828125 1111.148438 1405.28125 1136.089844 C 1434.96875 1235.535156 1403.441406 1305.113281 1316.871094 1354.984375 C 1269.980469 1381.992188 1217.75 1393.539062 1164.769531 1401.257812 C 1094.5 1411.484375 1023.808594 1411.011719 953.320312 1405.4375 C 872.515625 1399.050781 793.308594 1384.054688 719.570312 1348.390625 C 685.164062 1331.75 653.859375 1310.445312 630.820312 1278.941406 C 603.871094 1242.097656 598.808594 1200.523438 603.839844 1156.539062 C 608.289062 1117.640625 622.433594 1081.710938 639.882812 1047.519531 C 666.558594 995.269531 681.796875 939.089844 700.96875 884.21875 C 708.589844 862.421875 717.980469 841.390625 730.648438 821.960938 C 740.289062 802.289062 754.71875 786.441406 771.253906 772.550781 C 787.910156 758.570312 807.023438 748.550781 826.863281 739.761719 C 832.527344 737.25 838.945312 738.78125 844.152344 735.261719 C 865.589844 715.789062 887.339844 696.660156 911.664062 680.820312 C 935.214844 665.488281 959.394531 651.289062 986.613281 643.121094 C 989.96875 642.109375 993.101562 641.671875 996.523438 641.589844 C 1002.050781 641.441406 1003.460938 643.929688 1001.25 648.5 C 998.195312 654.800781 994.71875 660.890625 990.808594 668.230469 C 1007.191406 669.28125 1021.878906 658.980469 1038.710938 663.128906 C 1033.871094 677.601562 1020.578125 684.859375 1011.308594 696.371094 C 1034.03125 696.640625 1056.199219 697.828125 1078.300781 702.410156 C 1113.53125 709.710938 1146.640625 721.980469 1178.179688 738.988281 C 1181.671875 740.871094 1185.421875 742.269531 1189.050781 743.890625 C 1194 741.828125 1197.898438 744.53125 1201.800781 746.820312 C 1250.121094 775.25 1289.789062 812.558594 1318.859375 860.769531 C 1321.878906 865.769531 1324.039062 870.898438 1323.140625 876.890625 "/>
<path fill-rule="nonzero" fill="rgb(93.359375%, 94.139099%, 84.764099%)" fill-opacity="1" d="M 1191.019531 733.28125 C 1186.210938 732.320312 1184.25 729.289062 1183.878906 724.488281 C 1177.269531 639.75 1167.03125 554.96875 1186.640625 470.539062 C 1199.921875 413.371094 1225.621094 361.628906 1256.289062 312.109375 C 1276.75 279.070312 1299 247.449219 1330.089844 223.25 C 1344.519531 212.019531 1359.851562 202.578125 1378.148438 198.671875 C 1408.140625 192.25 1430.179688 202.921875 1444.121094 231.121094 C 1440.371094 236.691406 1444.191406 240.980469 1446.398438 245.660156 C 1449.710938 252.640625 1454.730469 259.460938 1449.691406 267.738281 C 1444.289062 269.359375 1442.550781 264.941406 1440.359375 261.75 C 1436.570312 256.25 1433.378906 250.339844 1429.078125 245.191406 C 1425.910156 241.921875 1422.699219 238.71875 1417.878906 237.980469 C 1398.289062 235.390625 1383.460938 244.871094 1370.378906 257.5 C 1341.71875 285.179688 1320.839844 318.648438 1300.238281 352.398438 C 1267.570312 405.929688 1245.539062 463.171875 1237.941406 525.578125 C 1234.179688 556.5 1233.539062 587.5 1236.140625 618.648438 C 1237.359375 633.320312 1240.351562 647.96875 1239.019531 662.839844 C 1235.019531 674.191406 1235.378906 685.960938 1236.019531 697.671875 C 1236.710938 710.441406 1233.28125 718.679688 1224.851562 722.679688 C 1216.910156 726.449219 1209.058594 723.839844 1199.800781 714.449219 C 1198.640625 713.28125 1198.140625 711.359375 1196.53125 711.019531 C 1194.070312 718.378906 1203.378906 728.339844 1191.019531 733.28125 "/>
<path fill-rule="nonzero" fill="rgb(26.268005%, 12.547302%, 18.821716%)" fill-opacity="1" d="M 1029.730469 2005.714844 C 1018.921875 1998.066406 1011.660156 2005.847656 1004.199219 2011.808594 C 998.082031 2016.699219 992.625 2022.617188 983.789062 2021.84375 C 982.441406 2016.863281 986.484375 2015.113281 989.449219 2013.207031 C 1034.839844 1983.925781 1027.859375 1929.761719 999.910156 1897.359375 C 999.417969 1896.789062 998.875 1896.25 998.355469 1895.703125 C 984.503906 1881.085938 984.507812 1881.085938 968.59375 1893.550781 C 965.589844 1895.898438 962.585938 1898.265625 958.378906 1897.535156 C 952.800781 1895.308594 950.992188 1890.167969 949.15625 1885.199219 C 945.859375 1876.277344 941.910156 1867.6875 936.878906 1859.503906 C 934.808594 1859.992188 935.625 1861.761719 935.417969 1862.894531 C 934.433594 1868.269531 933.292969 1873.804688 927.09375 1875.234375 C 920.710938 1876.710938 917.398438 1871.835938 914.5625 1867.324219 C 907.859375 1856.652344 900.105469 1846.875 890.742188 1838.445312 C 887.488281 1835.519531 884.347656 1830.082031 879.570312 1832.453125 C 875.085938 1834.679688 878.515625 1840.011719 878.632812 1843.960938 C 878.796875 1849.265625 880.757812 1854.394531 880.492188 1859.753906 C 880 1869.851562 874.96875 1872.691406 866.304688 1867.421875 C 859.1875 1863.085938 853.292969 1856.929688 845.78125 1853.128906 C 836.085938 1848.226562 834.453125 1849.136719 833.15625 1859.964844 C 831.539062 1873.492188 828.777344 1875.167969 815.152344 1870.878906 C 804.886719 1867.640625 804.460938 1867.9375 803.792969 1878.773438 C 803.152344 1889.292969 799.238281 1892.03125 789.058594 1889.007812 C 786.148438 1888.144531 783.421875 1886.761719 780.597656 1885.644531 C 768.898438 1881.003906 760.660156 1886.914062 764.3125 1899.292969 C 769.703125 1917.5625 769.589844 1936.855469 776.363281 1954.769531 C 781.652344 1968.738281 787.84375 1982.015625 798.253906 1993.003906 C 801.621094 1996.558594 805.273438 2000.082031 805.265625 2005.597656 C 804.613281 2009.035156 802.398438 2010.472656 799.050781 2010.445312 C 789.792969 1998.066406 780.484375 1985.726562 771.304688 1973.289062 C 769.21875 1970.457031 766.9375 1968.160156 763.527344 1966.992188 C 758.070312 1965.117188 756.164062 1960.472656 755.890625 1955.402344 C 754.671875 1932.867188 751.167969 1910.429688 753.226562 1887.757812 C 753.84375 1880.996094 752.59375 1874.867188 746.097656 1871.074219 C 743.480469 1861.398438 751.367188 1859.976562 757.226562 1857.347656 C 761.78125 1855.3125 766.8125 1855.675781 771.738281 1856.171875 C 774.679688 1856.46875 778.039062 1857.65625 780.308594 1854.960938 C 787.546875 1846.378906 796.847656 1842.214844 807.828125 1841.09375 C 809.761719 1840.894531 810.691406 1838.800781 811.710938 1837.199219 C 813.351562 1833.96875 815.640625 1831.335938 818.671875 1829.34375 C 827.496094 1823.003906 836.820312 1822.101562 846.628906 1826.824219 C 848.96875 1827.324219 850.730469 1828.652344 852.003906 1830.679688 C 853.324219 1820.652344 854.777344 1810.769531 865.046875 1805.238281 C 875.460938 1799.621094 884.816406 1802.957031 894.066406 1808.164062 C 898.703125 1810.773438 903.164062 1813.671875 907.304688 1817 C 913.914062 1822.3125 920.355469 1826.667969 929.871094 1824.71875 C 936.492188 1823.359375 942.164062 1827.667969 947.074219 1832.117188 C 953.351562 1837.804688 957.835938 1844.8125 961.976562 1852.101562 C 963.804688 1855.328125 965.46875 1859.515625 970.40625 1857.898438 C 990.546875 1851.320312 1003.730469 1862.21875 1015.921875 1875.738281 C 1027.410156 1888.472656 1027.378906 1888.46875 1037 1873.628906 C 1044.851562 1861.507812 1052.769531 1849.4375 1065.070312 1841.148438 C 1068.148438 1839.578125 1071.148438 1837.808594 1074.769531 1837.96875 C 1085.609375 1840.183594 1093.261719 1836.714844 1099.199219 1826.847656 C 1103.648438 1819.460938 1110.488281 1813.503906 1117.648438 1808.421875 C 1128.25 1800.914062 1139.488281 1801.0625 1148.640625 1809.871094 C 1153.351562 1814.414062 1156.261719 1812.628906 1160.28125 1809.910156 C 1170.730469 1802.832031 1181.789062 1797.015625 1194.390625 1794.730469 C 1216.550781 1790.710938 1226.730469 1798.632812 1227.519531 1821.089844 C 1227.730469 1827.09375 1229.148438 1830.296875 1235.710938 1830.46875 C 1242.988281 1830.660156 1248.921875 1834.148438 1252.851562 1840.273438 C 1255.921875 1845.066406 1259.839844 1846.277344 1265.359375 1845.90625 C 1290.929688 1844.175781 1304.878906 1862.410156 1296.53125 1886.289062 C 1295.761719 1888.464844 1295.171875 1890.675781 1295.21875 1892.960938 C 1295.359375 1898.996094 1292.609375 1906.652344 1296.480469 1910.644531 C 1301.28125 1915.609375 1306.148438 1907.816406 1311.179688 1906.257812 C 1324.390625 1902.15625 1332.039062 1903.644531 1340.171875 1914.46875 C 1342.761719 1917.917969 1345.460938 1920.832031 1349.390625 1922.578125 C 1351.609375 1923.617188 1353.5 1924.902344 1353.460938 1927.71875 C 1352.980469 1934.207031 1345.289062 1937.578125 1346.171875 1944.648438 C 1333.191406 1950.960938 1327.949219 1949.582031 1321.859375 1936.90625 C 1319.5 1931.976562 1317.480469 1931.632812 1313.429688 1934.414062 C 1303.46875 1941.261719 1295.601562 1949.226562 1293.890625 1962.148438 C 1291.828125 1977.699219 1285.460938 1991.878906 1278.429688 2005.808594 C 1275.050781 2012.5 1269.691406 2017.058594 1264.261719 2021.738281 C 1261.558594 2019.335938 1262.050781 2016.417969 1262.941406 2013.4375 C 1263.800781 2010.550781 1265.199219 2007.226562 1261.460938 2005.609375 C 1258.28125 2004.234375 1255.738281 2006.710938 1253.601562 2008.761719 C 1247.910156 2014.222656 1242.378906 2019.847656 1236.800781 2025.40625 C 1229.828125 2032.355469 1221.75 2036.503906 1211.589844 2035.394531 C 1211.25 2030.953125 1214.859375 2029.886719 1217.730469 2028.210938 C 1251.710938 2008.464844 1266.300781 1977.464844 1268.730469 1939.636719 C 1269.828125 1922.636719 1268.039062 1905.585938 1270.519531 1888.515625 C 1272.460938 1875.113281 1267.621094 1871.722656 1254.390625 1874.582031 C 1241.488281 1877.378906 1238.089844 1875.621094 1233.46875 1863.777344 C 1229.800781 1854.382812 1228.46875 1854.035156 1220.078125 1860.566406 C 1217.078125 1862.894531 1214.128906 1865.273438 1210.71875 1866.980469 C 1197.320312 1868.324219 1194.089844 1865.144531 1195.988281 1852.058594 C 1197.089844 1844.546875 1199.230469 1837.199219 1200.058594 1829.664062 C 1200.960938 1821.53125 1198.648438 1819.660156 1191.070312 1822.921875 C 1176.058594 1829.371094 1164.828125 1840.65625 1154.339844 1852.816406 C 1149.808594 1858.058594 1146.519531 1867.566406 1138.351562 1865.0625 C 1129.28125 1862.277344 1133.011719 1852.257812 1132.078125 1845.109375 C 1131.558594 1841.117188 1133.261719 1836.757812 1129.769531 1832.585938 C 1122.039062 1838.484375 1117.039062 1846.472656 1111.640625 1854.078125 C 1107.46875 1859.960938 1103.761719 1866.195312 1098.289062 1871.027344 C 1092.058594 1876.527344 1085.5 1878.46875 1079.660156 1870.890625 C 1074.71875 1864.46875 1071.648438 1867.984375 1068.261719 1872.128906 C 1058.789062 1883.6875 1052.210938 1896.941406 1045.910156 1910.371094 C 1041.378906 1920.496094 1045.011719 1930.496094 1046.621094 1940.398438 C 1049.488281 1958.089844 1046.351562 1974.902344 1040.53125 1991.480469 C 1038.449219 1997.410156 1034.308594 2001.714844 1029.730469 2005.714844 "/>
<path fill-rule="nonzero" fill="rgb(93.359375%, 94.139099%, 84.375%)" fill-opacity="1" d="M 819.734375 1832.714844 C 818.003906 1834.886719 816.269531 1837.0625 814.542969 1839.234375 C 799.679688 1837.722656 785.132812 1842.125 770.335938 1841.632812 C 763.808594 1841.417969 758.609375 1842.636719 755.539062 1849.414062 C 752.710938 1855.65625 746.832031 1857.371094 740.335938 1857.203125 C 736.523438 1857.109375 732.859375 1856.167969 729.140625 1855.460938 C 718.414062 1853.421875 715.882812 1856.300781 719.441406 1866.820312 C 721.878906 1874.023438 725.589844 1880.574219 730.46875 1886.519531 C 735.015625 1892.058594 740.21875 1897.085938 743.960938 1903.269531 C 744.09375 1925.707031 748.355469 1947.445312 757.164062 1970.8125 C 708.050781 1932.835938 677.542969 1886.640625 666.640625 1827.902344 C 654.96875 1765.011719 665.699219 1704.945312 688.285156 1646.226562 C 689.855469 1642.136719 691.417969 1638.042969 693.339844 1633.035156 C 697.121094 1644.308594 700.261719 1654.757812 701.164062 1665.769531 C 703.664062 1692.347656 719.398438 1712.824219 734.277344 1732.96875 C 749.050781 1752.972656 766.769531 1770.78125 782.757812 1789.945312 C 792.179688 1801.234375 802.800781 1811.671875 814.808594 1820.492188 C 818.714844 1823.359375 823.007812 1826.671875 819.734375 1832.714844 "/>
<path fill-rule="nonzero" fill="rgb(95.3125%, 95.3125%, 91.796875%)" fill-opacity="1" d="M 698.886719 856.238281 C 698.289062 861.230469 696.277344 865.601562 693.507812 869.121094 C 650.359375 770.238281 594.882812 677.5 548.4375 580.21875 C 523.03125 527.011719 506.179688 472.269531 511.644531 412.46875 C 515.21875 373.359375 526.417969 335.988281 537.6875 298.640625 C 539.964844 291.101562 542.109375 283.519531 544.398438 275.679688 C 542.8125 275.679688 542.011719 275.429688 541.640625 275.71875 C 537.984375 278.589844 536.378906 287.191406 531.761719 284.550781 C 527.132812 281.898438 529.976562 274.371094 531.492188 268.949219 C 544.957031 220.871094 597.171875 200.398438 639.480469 226.558594 C 662.335938 240.679688 679.527344 261.011719 695.183594 281.820312 C 721.359375 316.609375 745.539062 352.980469 769.296875 389.5 C 797.066406 432.191406 819.605469 477.519531 829.5625 528.011719 C 835.460938 557.929688 841.300781 587.960938 839.992188 618.730469 C 839.679688 625.988281 842.421875 632.640625 842.652344 639.878906 C 843.34375 661.441406 837.59375 682.75 840.605469 704.320312 C 841.160156 708.28125 838.511719 708.539062 835.714844 708.691406 C 828.539062 705.910156 828.535156 699.601562 828.480469 693.519531 C 828.300781 671.578125 828.203125 649.640625 828.546875 627.691406 C 828.808594 611.078125 828.726562 594.460938 824.289062 578.25 C 821.519531 548.460938 815.664062 519.308594 805.691406 491.050781 C 786.648438 437.371094 754.039062 391.511719 721.96875 345.28125 C 702.25 316.851562 683.074219 288.050781 659.882812 262.269531 C 647.703125 248.71875 634.039062 237.648438 614.238281 237.828125 C 606.988281 237.898438 600.800781 239.550781 595.816406 244.929688 C 592.832031 246.070312 589.835938 247.171875 587.167969 248.988281 C 582.210938 252.011719 577.929688 255.761719 574.566406 260.550781 C 555.082031 299.179688 544.636719 340.671875 535.890625 382.679688 C 530.816406 407.058594 531.878906 431.710938 533.167969 456.339844 C 535.078125 476.671875 541.160156 495.871094 549.078125 514.570312 C 550.097656 516.96875 551.539062 519.25 551.460938 522 C 549.980469 527.660156 550.597656 533.03125 552.878906 538.511719 C 580.761719 605.449219 614.007812 669.851562 645.523438 735.070312 C 648.003906 740.199219 651.640625 744.691406 653.691406 750.039062 C 667.386719 776.871094 681.773438 803.371094 693.410156 831.210938 C 696.761719 839.21875 700.113281 847.230469 698.886719 856.238281 "/>
<path fill-rule="nonzero" fill="rgb(83.59375%, 42.358398%, 24.705505%)" fill-opacity="1" d="M 1029.730469 2005.714844 C 1030.191406 1996.316406 1037.109375 1989.46875 1039.421875 1980.605469 C 1043.828125 1963.664062 1044.441406 1946.882812 1039.75 1930.191406 C 1037.398438 1921.804688 1038.25 1914.664062 1043 1907.695312 C 1057.28125 1910.761719 1063.738281 1917.296875 1065.160156 1930.9375 C 1065.910156 1938.109375 1066.808594 1945.234375 1068.289062 1952.289062 C 1072.070312 1970.273438 1084.070312 1981.394531 1100.03125 1988.316406 C 1108.550781 1992.019531 1117.648438 1991.996094 1125.921875 1985.855469 C 1140.449219 1975.058594 1156.648438 1972.214844 1174.429688 1975.480469 C 1183.671875 1977.175781 1193.230469 1976.300781 1202.25 1980.269531 C 1208.46875 1983.003906 1213.320312 1979.402344 1216.148438 1973.734375 C 1219.628906 1966.800781 1223.851562 1960.570312 1230.898438 1956.953125 C 1235.148438 1954.769531 1235.171875 1951.316406 1235.070312 1947.359375 C 1234.808594 1937.835938 1233.21875 1928.511719 1231.089844 1919.273438 C 1228.941406 1909.933594 1227.660156 1900.546875 1230.550781 1891.1875 C 1233.199219 1882.621094 1229.578125 1877.582031 1222.210938 1873.773438 C 1217.621094 1871.402344 1212.121094 1869.960938 1209.730469 1864.507812 C 1215.179688 1859.402344 1219.21875 1852.730469 1227.140625 1850.476562 C 1232.660156 1848.898438 1235.929688 1849.785156 1236.851562 1855.925781 C 1237.410156 1859.65625 1238.390625 1863.320312 1239.078125 1867.035156 C 1240.070312 1872.414062 1242.929688 1874.023438 1248.019531 1871.820312 C 1249.738281 1871.074219 1251.609375 1870.503906 1253.460938 1870.265625 C 1259.628906 1869.472656 1268.761719 1863.582031 1271.191406 1868.675781 C 1274.359375 1875.363281 1277.121094 1883.527344 1275.039062 1892.96875 C 1272.25 1905.65625 1273.550781 1919.28125 1273.359375 1932.5 C 1273.089844 1951.214844 1270.699219 1969.460938 1262.289062 1986.472656 C 1251.238281 2008.824219 1236.378906 2027.273438 1211.589844 2035.394531 C 1189.050781 2037.410156 1166.640625 2040.316406 1143.851562 2039.082031 C 1103.101562 2036.878906 1065.300781 2025.289062 1029.730469 2005.714844 "/>
<path fill-rule="nonzero" fill="rgb(69.726562%, 58.789062%, 52.929688%)" fill-opacity="1" d="M 1348.898438 1925.769531 C 1343.460938 1927.378906 1340.320312 1926.46875 1337.921875 1920.171875 C 1333.308594 1908.03125 1323.808594 1904.789062 1312.269531 1910.527344 C 1305.578125 1913.855469 1299.320312 1918.039062 1291.101562 1922.867188 C 1293.570312 1907.042969 1288.128906 1892.382812 1296.601562 1877.808594 C 1301.621094 1869.152344 1283.921875 1849.371094 1272.609375 1849.367188 C 1270.359375 1849.367188 1267.988281 1849.636719 1265.890625 1850.367188 C 1257.910156 1853.132812 1252.351562 1853.085938 1249.21875 1842.917969 C 1246.640625 1834.476562 1238.269531 1833.226562 1230.171875 1834.3125 C 1224.441406 1835.089844 1221.378906 1835.085938 1222.25 1827.113281 C 1225.230469 1799.964844 1215.519531 1792.421875 1189.089844 1800.476562 C 1175.148438 1804.726562 1162.988281 1812.332031 1151.769531 1821.515625 C 1139.660156 1803.195312 1128.5 1802.304688 1112.488281 1818.21875 C 1106.269531 1824.390625 1100.699219 1831.109375 1096.121094 1838.585938 C 1093.058594 1843.59375 1090.761719 1849.085938 1083.769531 1842.378906 C 1082.03125 1840.714844 1078 1841.4375 1075.03125 1841.0625 C 1073.800781 1829.160156 1081.171875 1820.644531 1086.648438 1811.359375 C 1092.539062 1803.539062 1098.660156 1795.914062 1104.128906 1787.753906 C 1108.828125 1780.761719 1110.109375 1774.1875 1105.839844 1766.714844 C 1103.019531 1761.800781 1101.890625 1756.839844 1107.011719 1752.492188 C 1113.519531 1757.695312 1117.828125 1762.566406 1116.859375 1772.828125 C 1115.160156 1790.832031 1126.03125 1800.035156 1144.5 1798.632812 C 1207.101562 1793.886719 1253.320312 1763.742188 1284.558594 1709.246094 C 1308.390625 1667.691406 1324.570312 1624.410156 1320.640625 1574.027344 C 1324.601562 1576.476562 1325.390625 1578.921875 1325.601562 1581.761719 C 1324.269531 1590.230469 1328.890625 1597.039062 1332.089844 1604.15625 C 1343.800781 1630.203125 1360.28125 1653.425781 1375.878906 1677.164062 C 1398.539062 1711.652344 1411.480469 1749.453125 1409.980469 1790.816406 C 1408.269531 1838.046875 1391.449219 1880.214844 1362.058594 1917.335938 C 1358.519531 1921.804688 1353.828125 1923.8125 1348.898438 1925.769531 "/>
<path fill-rule="nonzero" fill="rgb(87.109375%, 44.309998%, 24.31488%)" fill-opacity="1" d="M 573.199219 256.640625 C 575.777344 251.601562 579.671875 247.871094 584.664062 245.238281 C 600.683594 245.308594 612.222656 254.628906 623.316406 264.441406 C 649.507812 287.589844 668.484375 316.46875 686.621094 345.910156 C 711.527344 386.339844 735.277344 427.429688 749.703125 473.019531 C 762.355469 513.019531 768.886719 554.171875 769.417969 596.109375 C 769.878906 632.558594 769.320312 669.019531 769.59375 705.460938 C 769.734375 724.078125 767.257812 742.53125 766.664062 761.101562 C 766.171875 776.570312 754.71875 785.648438 741.296875 791.820312 C 735.929688 797.710938 728.359375 801.710938 725.824219 810 C 719.0625 810.769531 717.847656 805.230469 716.351562 800.929688 C 702.863281 762.160156 687.109375 724.449219 665.242188 689.511719 C 663.054688 686.019531 661.125 682.070312 664.121094 677.871094 C 678.433594 678.628906 685.980469 690.011719 695.582031 698.101562 C 698.164062 700.28125 699.746094 703.5 701.984375 706.089844 C 710.882812 716.429688 717.222656 715.980469 723.566406 704.140625 C 731.199219 689.890625 735.191406 674.371094 737.292969 658.53125 C 742.484375 619.449219 739.613281 580.480469 734.800781 541.558594 C 726.386719 473.511719 702.410156 411.328125 664.238281 354.570312 C 642.023438 321.550781 616.074219 292.011719 582.699219 269.621094 C 578.085938 266.519531 572.578125 263.730469 573.199219 256.640625 "/>
<path fill-rule="nonzero" fill="rgb(70.117188%, 58.396912%, 52.146912%)" fill-opacity="1" d="M 1287.128906 1617.515625 C 1289.96875 1619.785156 1290.671875 1624.171875 1295.480469 1626.019531 C 1297.210938 1612.535156 1293.390625 1600.847656 1288.71875 1589.433594 C 1281.699219 1572.289062 1270.171875 1558.242188 1257.371094 1545.136719 C 1259.03125 1538.316406 1264.101562 1540.949219 1268.199219 1541.363281 C 1278.941406 1542.429688 1281.46875 1540.253906 1280.28125 1529.6875 C 1276.351562 1494.9375 1237.46875 1443.644531 1188.359375 1444.535156 C 1161.988281 1445.019531 1136.390625 1450.105469 1110.398438 1452.753906 C 1058.289062 1458.074219 1006.140625 1460.382812 953.691406 1457 C 922.878906 1455.007812 892.578125 1451.203125 862.734375 1443.464844 C 861.65625 1443.183594 860.476562 1443.257812 859.289062 1444.367188 C 858.308594 1445.851562 859.015625 1447.640625 859.480469 1449.480469 C 863.503906 1465.558594 859.710938 1470.652344 842.953125 1469.730469 C 818.359375 1468.382812 798.3125 1455.964844 779.40625 1441.566406 C 773.394531 1436.996094 767.105469 1432.625 762.050781 1426.863281 C 758.484375 1422.789062 755.046875 1418.679688 757.929688 1412.726562 C 758.75 1408.941406 759.570312 1405.160156 760.386719 1401.378906 C 796.1875 1412.308594 832.433594 1421.589844 869.308594 1427.925781 C 937.542969 1439.652344 1006.351562 1443.386719 1075.539062 1441.332031 C 1137.5 1439.488281 1198.628906 1432.515625 1258.121094 1414.289062 C 1263.128906 1412.757812 1265.820312 1413.445312 1268.011719 1418.148438 C 1299.800781 1486.101562 1318.851562 1556.019531 1300.839844 1631.578125 C 1298.761719 1640.324219 1296.71875 1649.234375 1291.859375 1657.066406 C 1289.921875 1656.722656 1288.269531 1655.8125 1287.058594 1654.28125 C 1280.488281 1646.03125 1280.558594 1625.125 1287.128906 1617.515625 "/>
<path fill-rule="nonzero" fill="rgb(92.96875%, 48.242188%, 27.050781%)" fill-opacity="1" d="M 799.050781 2010.445312 C 800.800781 2008.945312 802.546875 2007.445312 804.289062 2005.941406 C 808.480469 2005.335938 810.6875 2008.121094 812.214844 2011.1875 C 816.035156 2018.832031 822.621094 2022.960938 830.925781 2026.644531 C 831.453125 2021.867188 828.53125 2018.757812 827.027344 2015.324219 C 824.574219 2009.730469 822.132812 2004.171875 822.34375 1997.890625 C 822.714844 1986.707031 829.46875 1981.289062 840.425781 1983.523438 C 845.640625 1984.578125 850.589844 1986.601562 855.675781 1988.144531 C 882.46875 1996.265625 909.40625 1996.835938 936.53125 1989.96875 C 942.449219 1988.472656 948.027344 1986.195312 953.554688 1983.617188 C 962.804688 1979.289062 966.257812 1972.785156 964.144531 1962.484375 C 961.621094 1950.207031 958.054688 1938.1875 955.683594 1925.894531 C 953.738281 1915.796875 952.527344 1905.617188 958.71875 1896.28125 C 966.480469 1892.964844 969.773438 1885.070312 975.601562 1879.753906 C 979.398438 1876.285156 982.707031 1874.503906 987.421875 1878.371094 C 1017.808594 1903.367188 1033.398438 1939.609375 1023.539062 1976.035156 C 1017.660156 1997.738281 1002.621094 2011.417969 983.792969 2021.84375 C 940.640625 2037.539062 896.085938 2041.027344 850.539062 2038.683594 C 828.191406 2037.53125 811.273438 2028.875 799.050781 2010.445312 "/>
<path fill-rule="nonzero" fill="rgb(27.050781%, 13.719177%, 17.651367%)" fill-opacity="1" d="M 1235.058594 661.78125 C 1233.710938 638.328125 1230.640625 615.039062 1229.988281 591.488281 C 1227.550781 502.121094 1252.089844 420.511719 1298.941406 344.960938 C 1316.140625 317.238281 1333.769531 289.890625 1355.640625 265.558594 C 1373.511719 245.660156 1393.921875 230.941406 1422.640625 233.980469 C 1422.160156 237.980469 1419.191406 240.101562 1415.960938 241.011719 C 1387.871094 248.890625 1369.769531 269.121094 1353.449219 291.460938 C 1315.691406 343.199219 1282.578125 397.449219 1263.558594 459.25 C 1254.46875 488.78125 1250.171875 518.960938 1248.160156 549.808594 C 1243.96875 614.328125 1254.460938 677.519531 1263.308594 740.898438 C 1264.96875 752.761719 1265.371094 764.921875 1270.269531 778.960938 C 1280.378906 749.910156 1290.660156 723.539062 1303.941406 698.488281 C 1309.03125 687.839844 1315.539062 678.089844 1323.019531 668.988281 C 1362.269531 621.238281 1392.601562 568.089844 1418.171875 512.050781 C 1419.898438 508.25 1421.351562 504.28125 1424.171875 501.140625 C 1426.820312 498.210938 1429.761719 495.25 1433.101562 500.550781 C 1435.601562 513 1428.230469 523.191406 1425.289062 534.398438 C 1424.238281 538.410156 1422.429688 542.238281 1420.578125 545.980469 C 1404.671875 582.921875 1386.109375 618.429688 1363.390625 651.691406 C 1359.769531 657 1356.199219 662.371094 1351.640625 666.96875 C 1330.101562 689.648438 1317.191406 717.371094 1305.988281 745.980469 C 1301.019531 758.679688 1296.71875 771.671875 1291.550781 784.289062 C 1287.828125 793.371094 1288.589844 800.03125 1295.53125 807.738281 C 1309.199219 822.929688 1322.019531 839.011719 1330.101562 858.160156 C 1331.03125 860.488281 1330.28125 863.429688 1332.71875 865.210938 C 1329.53125 869.101562 1326.328125 873 1323.140625 876.890625 C 1292.191406 818.691406 1245.820312 776.050781 1189.050781 743.890625 C 1189.238281 740.46875 1191.808594 738.398438 1193.601562 735.878906 C 1199.128906 731.761719 1203.660156 735.648438 1208.148438 737.988281 C 1219.589844 743.941406 1229.730469 752.039062 1243 759.558594 C 1239.199219 725.980469 1234.160156 694.058594 1235.058594 661.78125 "/>
<path fill-rule="nonzero" fill="rgb(68.164062%, 57.226562%, 51.756287%)" fill-opacity="1" d="M 1065.921875 1844.101562 C 1050.128906 1859.699219 1038.070312 1877.921875 1028.171875 1899.246094 C 1020.621094 1888.976562 1013.929688 1879.417969 1005.5 1871.246094 C 994.710938 1860.769531 983.265625 1855.292969 969.003906 1863.9375 C 964.339844 1866.765625 963.296875 1863.875 961.691406 1860.660156 C 956.746094 1850.789062 951.183594 1841.234375 942.769531 1833.914062 C 936.925781 1828.839844 930.304688 1824.472656 922.527344 1830.632812 C 918.308594 1833.96875 916.457031 1830.4375 914.105469 1828.269531 C 905.121094 1820 895.566406 1812.589844 884.035156 1808.1875 C 868.902344 1802.414062 861.769531 1806.207031 857.621094 1822.285156 C 856.59375 1826.273438 856.125 1830.40625 855.363281 1834.664062 C 851.703125 1834.738281 849.550781 1831.859375 846.851562 1830.03125 C 837.675781 1808.320312 816.488281 1803.28125 797.863281 1794.636719 C 788.914062 1790.476562 779.804688 1786.316406 773.050781 1778.867188 C 769.46875 1774.917969 764.09375 1770.746094 769.304688 1764.253906 C 794.109375 1784.257812 823.976562 1792.925781 853.867188 1800.988281 C 874.046875 1806.433594 887.070312 1795.847656 888.023438 1775.386719 C 888.175781 1772.175781 887.054688 1768.640625 891.109375 1766.433594 C 908.617188 1756.921875 907.90625 1740.738281 904.929688 1724.769531 C 900.335938 1700.109375 885.085938 1680.679688 870.351562 1661.515625 C 842.050781 1624.707031 826.9375 1583.886719 828.832031 1537.160156 C 828.964844 1533.847656 829.71875 1530.265625 826.917969 1527.453125 C 827.152344 1524.476562 827.9375 1521.789062 830.746094 1520.160156 C 835.183594 1530.652344 836.691406 1541.980469 839.433594 1552.90625 C 846.179688 1579.84375 854.023438 1606.324219 865.738281 1631.546875 C 869.054688 1639.632812 874.28125 1646.582031 879.226562 1653.6875 C 896.324219 1678.273438 911.96875 1703.496094 917.628906 1733.652344 C 920.046875 1746.519531 918.328125 1757.898438 908.222656 1766.789062 C 902.535156 1771.796875 904.605469 1774.726562 909.78125 1777.820312 C 934.917969 1792.816406 958.070312 1810.394531 978.976562 1830.9375 C 986.496094 1838.324219 998.484375 1836.90625 1006.199219 1844.136719 C 1012.511719 1849.867188 1014.679688 1862.839844 1022.75 1862.269531 C 1029.5 1861.789062 1031.601562 1849.300781 1036.75 1842.8125 C 1038.871094 1840.144531 1040.988281 1837.46875 1043.101562 1834.796875 C 1045.550781 1830.191406 1047.601562 1825.328125 1051.101562 1821.382812 C 1057.121094 1814.605469 1064.609375 1815.960938 1067.050781 1824.765625 C 1068.808594 1831.078125 1070.480469 1837.914062 1065.921875 1844.101562 "/>
<path fill-rule="nonzero" fill="rgb(82.03125%, 76.5625%, 69.334412%)" fill-opacity="1" d="M 1287.128906 1617.515625 C 1285.871094 1631.035156 1285.960938 1644.394531 1291.859375 1657.066406 C 1274.011719 1705.921875 1247.140625 1747.359375 1197.589844 1769.449219 C 1180.371094 1777.121094 1161.109375 1777.085938 1143.03125 1781.917969 C 1132.890625 1784.632812 1127.179688 1773.800781 1133.769531 1762.734375 C 1141.261719 1750.152344 1141.460938 1736.046875 1146.828125 1720.796875 C 1139.710938 1725.453125 1137.910156 1731.203125 1134.769531 1735.851562 C 1132.671875 1738.96875 1131.199219 1743.367188 1126.671875 1742.648438 C 1122.058594 1741.910156 1120.101562 1737.671875 1119.261719 1733.472656 C 1118.21875 1728.308594 1117.21875 1722.992188 1120.328125 1718.050781 C 1129.308594 1713.953125 1133.390625 1703.863281 1142.488281 1699.90625 C 1146.710938 1698.070312 1150.769531 1692.304688 1155.480469 1696.457031 C 1159.601562 1700.089844 1155.839844 1705.070312 1153.859375 1708.976562 C 1148.921875 1718.648438 1155.050781 1727.226562 1156.871094 1735.941406 C 1157.960938 1741.152344 1175.261719 1741.023438 1183.230469 1736.003906 C 1200.070312 1725.417969 1212.179688 1710.519531 1220.730469 1692.746094 C 1223.96875 1686.023438 1226.328125 1678.878906 1229.03125 1672.058594 C 1234.28125 1672.589844 1233.300781 1677.554688 1236.191406 1679.71875 C 1236.921875 1679.152344 1238.179688 1678.691406 1238.429688 1677.90625 C 1240.53125 1671.414062 1242.078125 1664.722656 1244.488281 1658.355469 C 1248.109375 1648.808594 1251.578125 1648.394531 1259.351562 1655.175781 C 1262.949219 1658.308594 1265.058594 1665.53125 1269.980469 1664.1875 C 1276.171875 1662.488281 1274.921875 1654.851562 1276.410156 1649.492188 C 1279.21875 1639.359375 1277.308594 1629.074219 1278.078125 1618.890625 C 1278.300781 1615.886719 1276.121094 1611.003906 1281.058594 1610.511719 C 1284.699219 1610.152344 1286.71875 1613.734375 1287.128906 1617.515625 "/>
<path fill-rule="nonzero" fill="rgb(95.701599%, 95.3125%, 93.359375%)" fill-opacity="1" d="M 1416.519531 545.75 C 1421.699219 530.199219 1428.148438 515.050781 1431.390625 498.871094 C 1427.199219 491.898438 1429.839844 484.808594 1431.179688 477.808594 C 1438.628906 439.070312 1449.089844 400.871094 1454.179688 361.761719 C 1457.5 336.289062 1458.828125 310.261719 1449.351562 285.191406 C 1447.308594 279.78125 1443.808594 273.898438 1448.839844 268.050781 C 1448.691406 259.101562 1445.5 251.308594 1440.371094 244.050781 C 1436.480469 238.550781 1436.058594 233.449219 1444.121094 231.121094 C 1469.308594 271.210938 1476.738281 315.109375 1473.160156 361.71875 C 1468.640625 420.789062 1454.160156 478.089844 1443.289062 536.03125 C 1434.320312 583.890625 1425.929688 631.898438 1411.488281 678.550781 C 1395.230469 731.101562 1370.460938 780.03125 1347.660156 829.808594 C 1342.328125 841.449219 1337.679688 853.398438 1332.71875 865.199219 C 1329.160156 865.828125 1328.671875 863.25 1328.089844 860.769531 C 1324.25 851.421875 1328 843.078125 1331.519531 834.679688 C 1348.308594 794.550781 1368.019531 755.691406 1383.25 714.890625 C 1388.53125 700.75 1394.929688 687 1397.878906 672.058594 C 1405.960938 633.550781 1412.269531 594.761719 1417.351562 555.75 C 1417.808594 552.25 1417.789062 549.011719 1416.519531 545.75 "/>
<path fill-rule="nonzero" fill="rgb(26.268005%, 13.719177%, 18.041992%)" fill-opacity="1" d="M 741.292969 791.820312 C 761.980469 776.121094 763.402344 754.011719 763.734375 730.339844 C 764.488281 675.71875 766.984375 621.148438 762.980469 566.519531 C 757.78125 495.609375 733.203125 431.589844 696.433594 371.558594 C 674.648438 336 654.011719 299.671875 623.21875 270.628906 C 611.800781 259.851562 599.457031 250.761719 584.667969 245.238281 C 587.425781 244.460938 590.1875 243.671875 592.945312 242.878906 C 603.023438 240 611.289062 244.398438 619.34375 249.511719 C 640.269531 262.769531 655.5625 281.519531 669.535156 301.488281 C 702.414062 348.488281 732.765625 397.019531 754.3125 450.390625 C 770.914062 491.519531 777.882812 534.828125 781.046875 578.921875 C 782.351562 597.078125 783.582031 615.179688 783.117188 633.390625 C 782.683594 637.148438 781.796875 640.839844 781.882812 644.691406 C 782.589844 675.078125 780.929688 705.460938 780.960938 735.851562 C 780.976562 750.828125 781.035156 750.910156 793.570312 743.691406 C 801.816406 738.941406 810.441406 734.988281 819.144531 731.21875 C 823.558594 729.308594 828.195312 726.691406 833.066406 730.371094 C 835.90625 733.941406 839.769531 735.191406 844.152344 735.261719 C 838.035156 742.328125 828.765625 743.121094 820.945312 746.730469 C 784.085938 763.761719 754.449219 789.320312 730.648438 821.960938 C 729.160156 813.171875 736.234375 808.449219 740.179688 802.328125 C 742.449219 798.800781 746.074219 795.898438 741.292969 791.820312 "/>
<path fill-rule="nonzero" fill="rgb(81.25%, 76.5625%, 68.943787%)" fill-opacity="1" d="M 708.320312 1629.296875 C 710.378906 1623.207031 712.136719 1617 716.464844 1611.933594 C 717.917969 1610.238281 718.882812 1607.53125 721.476562 1608.109375 C 724.308594 1608.757812 723.75 1611.691406 723.777344 1613.847656 C 723.851562 1619.925781 723.75 1626.003906 723.726562 1632.085938 C 723.691406 1639.605469 724.75 1645.742188 730.136719 1652.628906 C 735.429688 1659.386719 735.296875 1670.386719 737.578125 1679.511719 C 738.292969 1682.378906 739.015625 1686.984375 743.019531 1683.753906 C 752.308594 1676.265625 755.125 1684.496094 758.371094 1689.800781 C 771.886719 1711.84375 790.144531 1728.222656 813.902344 1738.546875 C 826.730469 1744.121094 849.15625 1740.890625 855.765625 1732.949219 C 862.066406 1725.378906 859.050781 1718.15625 856.585938 1710.578125 C 855.609375 1707.574219 852.230469 1704.246094 855.964844 1701.339844 C 858.898438 1699.050781 862.453125 1700.46875 865.738281 1701.652344 C 869.421875 1702.984375 873.164062 1706.546875 876.996094 1701.863281 C 884.089844 1711.601562 887.390625 1722.605469 887.859375 1734.542969 C 888.046875 1739.195312 888.105469 1744.34375 883.464844 1746.632812 C 878.03125 1749.304688 875.691406 1743.585938 872.398438 1740.875 C 871.054688 1739.773438 870.109375 1738.191406 868.003906 1735.636719 C 868.101562 1748.769531 871.078125 1759.75 872.851562 1770.890625 C 874.519531 1781.40625 870.636719 1785.738281 860.042969 1785.238281 C 858.535156 1785.164062 856.992188 1784.980469 855.550781 1784.566406 C 811.050781 1771.84375 770.25 1754.585938 743.089844 1713.101562 C 725.953125 1686.929688 712.269531 1660.425781 708.320312 1629.296875 "/>
<path fill-rule="nonzero" fill="rgb(75.78125%, 67.381287%, 61.131287%)" fill-opacity="1" d="M 1107.011719 1752.492188 C 1107.160156 1755.488281 1106.269531 1759.097656 1107.621094 1761.378906 C 1116.378906 1776.175781 1109.308594 1787.3125 1099.5 1797.558594 C 1094.738281 1802.523438 1095.519531 1810.8125 1088.691406 1814.246094 C 1084.539062 1807.796875 1088.039062 1803.839844 1093.199219 1800.429688 C 1096.378906 1795.253906 1099.558594 1790.078125 1102.730469 1784.910156 C 1106.300781 1779.105469 1106.261719 1773.570312 1101.929688 1768.046875 C 1085.078125 1746.542969 1082.941406 1722.089844 1089.800781 1696.902344 C 1096.988281 1670.515625 1107.820312 1645.347656 1119.429688 1620.578125 C 1120.839844 1617.578125 1122.078125 1613.226562 1125.898438 1613.425781 C 1129.238281 1613.597656 1129.078125 1617.953125 1130.191406 1620.671875 C 1130.96875 1622.613281 1131.488281 1625.839844 1134.320312 1624.996094 C 1136.140625 1624.464844 1138 1622.167969 1138.75 1620.234375 C 1148.660156 1594.722656 1166.429688 1571.765625 1164.378906 1542.324219 C 1170.761719 1579.796875 1163.289062 1614.46875 1142.839844 1646.324219 C 1133.21875 1661.300781 1122.5 1675.589844 1113.191406 1690.746094 C 1101.269531 1710.121094 1097.808594 1730.785156 1107.011719 1752.492188 "/>
<path fill-rule="nonzero" fill="rgb(26.268005%, 13.719177%, 18.041992%)" fill-opacity="1" d="M 663.796875 678.480469 C 689.050781 717.390625 707.574219 759.410156 721.710938 803.46875 C 722.515625 805.96875 723.425781 808.46875 725.824219 810 C 725.449219 817.800781 722.589844 823.898438 714.585938 826.488281 C 709.242188 823.011719 708.421875 817.039062 706.839844 811.691406 C 694.574219 770.261719 675.816406 731.75 654.683594 694.269531 C 653.132812 691.519531 651.078125 689.429688 648.628906 687.601562 C 613.269531 640.800781 577.816406 594.050781 553.238281 540.25 C 550.703125 534.691406 548.953125 529.03125 548.152344 523.019531 C 540.019531 501.191406 531.457031 479.480469 529.128906 456 C 535.15625 456.53125 535.464844 456.429688 537.507812 462.691406 C 541.160156 473.890625 544.816406 485.039062 549.617188 495.851562 C 575.3125 553.648438 612.105469 604.371094 650.066406 654.390625 C 655.636719 661.730469 664.011719 667.738281 663.796875 678.480469 "/>
<path fill-rule="nonzero" fill="rgb(70.117188%, 58.396912%, 53.318787%)" fill-opacity="1" d="M 833.070312 730.371094 C 813.625 737.828125 795.273438 747.421875 778.851562 758.53125 L 778.851562 632.511719 C 785.230469 633.921875 785.15625 639.160156 785.4375 643.96875 C 786.210938 657.089844 788.445312 670.089844 788.460938 683.25 C 788.765625 685.878906 788.40625 688.550781 788.636719 691.191406 C 789.164062 697.320312 793.355469 700.640625 798.480469 702.558594 C 804.242188 704.730469 807.714844 700.769531 810.679688 696.640625 C 813.804688 692.269531 815.703125 687.488281 816.15625 682 C 818.546875 653.308594 819.164062 624.570312 819.757812 595.808594 C 819.90625 588.511719 818.21875 579.480469 828.316406 576.101562 C 835.421875 614.550781 832.726562 653.410156 833.195312 692.140625 C 833.265625 697.789062 832.910156 703.46875 835.710938 708.691406 C 837.175781 716.199219 836.777344 723.488281 833.070312 730.371094 "/>
<path fill-rule="nonzero" fill="rgb(74.414062%, 65.039062%, 58.396912%)" fill-opacity="1" d="M 651.273438 684.339844 C 674.46875 715.300781 689.789062 750.269531 702.902344 786.300781 C 707.671875 799.398438 713.066406 812.410156 714.582031 826.488281 C 709.347656 836.398438 704.117188 846.320312 698.886719 856.230469 C 685.183594 820.121094 666.589844 786.261719 650.636719 751.179688 C 656.9375 745.039062 662.375 752.070312 668.664062 752.570312 C 659.3125 735.640625 652.714844 718.03125 648.347656 699.609375 C 647.089844 694.308594 644.992188 688.398438 651.273438 684.339844 "/>
<path fill-rule="nonzero" fill="rgb(86.326599%, 44.700623%, 24.705505%)" fill-opacity="1" d="M 1264.261719 2021.742188 C 1272.210938 2007.265625 1281.679688 1993.53125 1285.890625 1977.246094 C 1287.121094 1972.515625 1289.210938 1967.753906 1289.230469 1963 C 1289.320312 1943.511719 1304.28125 1935.632812 1317.121094 1926.027344 C 1320.820312 1923.257812 1324.640625 1924.621094 1324.480469 1928.777344 C 1323.808594 1945.40625 1334.910156 1944.90625 1346.171875 1944.652344 C 1344.28125 1950.703125 1340.589844 1956.472656 1343.378906 1963.246094 C 1344.671875 1966.386719 1342.140625 1968.074219 1340.648438 1970.179688 C 1321.671875 1996.976562 1296.671875 2014.847656 1264.261719 2021.742188 "/>
<path fill-rule="nonzero" fill="rgb(94.53125%, 92.96875%, 90.625%)" fill-opacity="1" d="M 1348.898438 1925.769531 C 1372.871094 1899.996094 1389.078125 1869.847656 1398.511719 1836.097656 C 1414.320312 1779.519531 1403.238281 1727.328125 1371.75 1678.753906 C 1356.480469 1655.199219 1340.210938 1632.21875 1329.078125 1606.28125 C 1325.789062 1598.625 1320.390625 1590.816406 1325.601562 1581.761719 C 1338.539062 1611.816406 1355.441406 1639.558594 1374.011719 1666.457031 C 1431.121094 1749.214844 1427.378906 1843.953125 1364.371094 1922.042969 C 1361.519531 1925.578125 1359.179688 1929.824219 1353.449219 1927.71875 C 1351.941406 1927.074219 1350.421875 1926.417969 1348.898438 1925.769531 "/>
<path fill-rule="nonzero" fill="rgb(77.734375%, 69.726562%, 63.084412%)" fill-opacity="1" d="M 769.304688 1764.253906 C 769.261719 1772.273438 775.308594 1775.957031 780.714844 1779.914062 C 793.296875 1789.121094 807.996094 1794.160156 822.125 1800.230469 C 835.644531 1806.03125 846.613281 1813.441406 846.851562 1830.03125 C 837.398438 1826.75 828.386719 1827.894531 819.734375 1832.714844 C 819.613281 1828.765625 816.882812 1826.988281 813.9375 1824.96875 C 797.554688 1813.703125 783.390625 1799.882812 772.007812 1783.742188 C 759.257812 1765.675781 740.96875 1752.230469 729.492188 1733.582031 C 716.980469 1713.257812 700.613281 1694.09375 700.839844 1668.019531 C 700.851562 1667.269531 701.050781 1666.515625 701.164062 1665.769531 C 714.238281 1705.273438 739.6875 1736.203125 769.304688 1764.253906 "/>
<path fill-rule="nonzero" fill="rgb(81.639099%, 76.171875%, 68.554688%)" fill-opacity="1" d="M 743.960938 1903.269531 C 725.210938 1894.957031 717.546875 1878.320312 712.859375 1860.136719 C 710.824219 1852.222656 717.152344 1847.585938 725.484375 1849.488281 C 729.886719 1850.484375 734.15625 1852.21875 738.59375 1852.902344 C 745.453125 1853.964844 751.464844 1853.039062 752.976562 1844.433594 C 754.035156 1838.390625 758.433594 1836.984375 763.9375 1837.035156 C 775.625 1837.132812 787.4375 1838.066406 798.574219 1833.144531 C 805.910156 1829.902344 808.773438 1838.378906 814.542969 1839.234375 C 813.71875 1845.015625 812.34375 1848.230469 804.59375 1846.835938 C 792.664062 1844.695312 785.886719 1852.269531 782.203125 1864.003906 C 773.929688 1860.003906 765.46875 1858.117188 756.585938 1861.726562 C 751.878906 1863.632812 747.765625 1865.90625 746.09375 1871.070312 C 740.910156 1881.503906 745.519531 1892.59375 743.960938 1903.269531 "/>
<path fill-rule="nonzero" fill="rgb(75.193787%, 68.164062%, 61.131287%)" fill-opacity="1" d="M 1235.058594 661.78125 C 1239.820312 683.230469 1240.449219 705.230469 1243.628906 726.898438 C 1245.589844 740.339844 1247.019531 753.859375 1248.949219 769.339844 C 1229.601562 757.210938 1213.21875 743.75 1193.589844 735.878906 C 1192.738281 735.011719 1191.878906 734.148438 1191.019531 733.28125 C 1196.710938 727.359375 1191.21875 721.101562 1191.53125 715 C 1191.75 710.539062 1191.570312 706.058594 1191.570312 700.378906 C 1199.398438 703.488281 1200.96875 711.359375 1206.550781 714.78125 C 1211.078125 717.558594 1214.539062 723.46875 1221.390625 720.289062 C 1228.609375 716.929688 1232.199219 711.390625 1232.429688 703.390625 C 1232.820312 689.488281 1231.140625 675.449219 1235.058594 661.78125 "/>
<path fill-rule="nonzero" fill="rgb(77.734375%, 69.726562%, 63.867188%)" fill-opacity="1" d="M 757.929688 1412.726562 C 764.6875 1427.808594 778.894531 1435.472656 791.292969 1444.265625 C 808.007812 1456.117188 826.273438 1465.585938 847.941406 1465.335938 C 856.601562 1465.226562 860.222656 1463.089844 856.246094 1453.894531 C 853.933594 1448.546875 848.125 1441.675781 851.652344 1437.464844 C 855.765625 1432.550781 862.757812 1438.683594 868.421875 1440.027344 C 895.402344 1446.410156 922.617188 1450.046875 950.347656 1452.0625 C 975.808594 1453.921875 1001.191406 1453.96875 1026.570312 1453.597656 C 1070.519531 1452.945312 1114.199219 1448.492188 1157.578125 1441.179688 C 1226.578125 1429.550781 1272 1469.472656 1285.140625 1528.660156 C 1288.738281 1544.855469 1281.539062 1550.785156 1265.71875 1545.648438 C 1262.960938 1544.753906 1260.351562 1542.273438 1257.371094 1545.136719 C 1216.140625 1515.40625 1171.550781 1492.28125 1123.011719 1476.929688 C 1114.898438 1474.359375 1112.308594 1476.222656 1115.429688 1484.703125 C 1122.148438 1502.960938 1118.140625 1519.867188 1107.921875 1535.617188 C 1104.191406 1541.375 1099.960938 1544.179688 1096.21875 1535.132812 C 1082.859375 1502.773438 1055.359375 1488.648438 1023.96875 1479.921875 C 1018.988281 1478.53125 1013.441406 1478.890625 1008.148438 1478.941406 C 1001.910156 1479 998.535156 1482.644531 1000.601562 1488.601562 C 1004.570312 1500.0625 996.621094 1501.242188 989.394531 1501.414062 C 960.59375 1502.09375 931.6875 1503.636719 903.3125 1496.460938 C 900.390625 1495.722656 897.382812 1495.082031 894.386719 1494.949219 C 880.535156 1494.316406 875.914062 1501.074219 880.628906 1514.261719 C 881.9375 1517.933594 886.929688 1521.886719 883.429688 1525.410156 C 880.265625 1528.597656 874.726562 1527.089844 870.324219 1525.914062 C 818.625 1512.152344 780.855469 1481.050781 756.132812 1433.828125 C 752.296875 1426.503906 752.0625 1419.3125 757.929688 1412.726562 "/>
<path fill-rule="nonzero" fill="rgb(76.5625%, 68.943787%, 62.304688%)" fill-opacity="1" d="M 1006.199219 1844.132812 C 990.09375 1843.179688 976.914062 1837.382812 965.535156 1825.011719 C 947.992188 1805.933594 925.398438 1792.984375 903.683594 1779.195312 C 896.890625 1774.875 893.90625 1772.457031 902.65625 1765.964844 C 917.324219 1755.085938 918.699219 1737.996094 909.695312 1714.074219 C 901.464844 1692.199219 888.8125 1672.992188 875.199219 1654.257812 C 870.558594 1647.882812 865.097656 1641.929688 862.867188 1634.050781 C 865.878906 1631.128906 868.875 1631.660156 871.855469 1634.109375 C 882.367188 1653.828125 896.082031 1671.597656 906.136719 1691.648438 C 914.734375 1708.796875 920.035156 1726.671875 922.164062 1745.585938 C 922.535156 1748.90625 923.039062 1753.320312 921.320312 1755.597656 C 913.257812 1766.308594 920.5625 1770.605469 928.433594 1775.230469 C 958.855469 1793.105469 983.742188 1817.253906 1006.199219 1844.132812 "/>
<path fill-rule="nonzero" fill="rgb(79.296875%, 71.679688%, 65.039062%)" fill-opacity="1" d="M 1093.210938 1800.429688 C 1091.699219 1805.03125 1090.199219 1809.640625 1088.691406 1814.246094 C 1084.140625 1823.183594 1079.578125 1832.125 1075.03125 1841.0625 C 1071.988281 1842.070312 1068.960938 1843.089844 1065.921875 1844.101562 C 1065.148438 1838.984375 1064.28125 1833.882812 1063.640625 1828.746094 C 1063.238281 1825.480469 1064 1821.445312 1060.050781 1820.191406 C 1056.140625 1818.941406 1054.460938 1822.996094 1051.960938 1824.996094 C 1048.480469 1827.789062 1047.519531 1832.855469 1043.101562 1834.796875 C 1046.859375 1818.09375 1057.238281 1803.792969 1060.339844 1786.796875 C 1061.890625 1778.238281 1064.328125 1769.832031 1066.519531 1761.390625 C 1067.078125 1759.242188 1067.839844 1756.738281 1070.5 1756.394531 C 1073.28125 1756.03125 1074.210938 1758.488281 1075.339844 1760.429688 C 1081.261719 1770.707031 1084.601562 1782.035156 1088.519531 1793.105469 C 1089.570312 1796.058594 1090.148438 1798.925781 1093.210938 1800.429688 "/>
<path fill-rule="nonzero" fill="rgb(81.25%, 76.5625%, 68.554688%)" fill-opacity="1" d="M 871.855469 1634.109375 C 868.863281 1634.09375 865.863281 1634.070312 862.863281 1634.050781 C 848.710938 1610.488281 842.972656 1583.90625 835.644531 1557.90625 C 832.164062 1545.566406 830.671875 1532.964844 830.75 1520.160156 C 833.972656 1521.335938 834.882812 1524.105469 835.992188 1527.042969 C 844.578125 1549.761719 856.183594 1570.96875 868.851562 1591.613281 C 872.34375 1597.3125 874.546875 1602.832031 871.492188 1609.65625 C 867.894531 1617.703125 869.949219 1625.980469 871.855469 1634.109375 "/>
<path fill-rule="nonzero" fill="rgb(92.576599%, 94.53125%, 84.375%)" fill-opacity="1" d="M 621.390625 1166.960938 C 621.972656 1139.488281 632.324219 1114.480469 641.578125 1089.328125 C 654.550781 1054.089844 674.21875 1021.679688 686.203125 986.011719 C 696.953125 954.019531 706.574219 921.648438 717.59375 889.769531 C 730.769531 851.648438 750.488281 817.300781 780.308594 789.570312 C 787.394531 782.96875 794.132812 775.589844 803.425781 771.699219 C 830.550781 761.160156 857.546875 764.871094 885.019531 771.058594 C 929.851562 781.148438 970.980469 798.550781 1006.210938 828.449219 C 1037.511719 855.019531 1055.03125 890.050781 1065.371094 928.941406 C 1072.890625 957.21875 1076.78125 986.199219 1079.589844 1015.308594 C 1082.488281 1045.371094 1091.179688 1073.238281 1110.578125 1097.089844 C 1125.050781 1114.871094 1143.988281 1126.429688 1164.328125 1136.089844 C 1168.910156 1137.820312 1171.269531 1141.800781 1173.859375 1145.539062 C 1195.488281 1176.890625 1223.820312 1189.445312 1266.039062 1172.011719 C 1267.820312 1171.269531 1269.578125 1170.648438 1271.53125 1170.710938 C 1277.289062 1172.550781 1283.929688 1173.410156 1284.050781 1181.671875 C 1282.648438 1186.488281 1278.53125 1188.726562 1274.699219 1191.078125 C 1268.820312 1194.695312 1263.859375 1199.324219 1259.128906 1204.253906 C 1238.820312 1225.375 1238.769531 1250.671875 1259.070312 1271.964844 C 1266.75 1280.015625 1276.289062 1285.5 1285.890625 1290.878906 C 1290.460938 1293.441406 1295.660156 1295.375 1297.460938 1301.109375 C 1296.898438 1310.519531 1289.109375 1314.398438 1282.761719 1318.445312 C 1261.78125 1331.828125 1239.96875 1343.742188 1216.589844 1352.585938 C 1207.160156 1356.152344 1197.328125 1359.085938 1190.078125 1366.8125 C 1171.421875 1373.492188 1151.890625 1376.171875 1132.421875 1378.441406 C 1091.78125 1383.1875 1050.910156 1384.652344 1010.050781 1383.171875 C 990.53125 1382.464844 970.765625 1382.945312 951.578125 1377.808594 C 947.921875 1376.828125 944.03125 1377.46875 940.253906 1377.425781 C 883.074219 1370.882812 826.257812 1362.476562 772.144531 1341.519531 C 752.253906 1333.8125 733.863281 1323.285156 717.019531 1310.257812 C 710.609375 1305.296875 703.195312 1300.359375 703.632812 1290.472656 C 705.84375 1283.847656 712.109375 1282.25 717.425781 1279.59375 C 730.332031 1273.140625 743.148438 1266.816406 752.125 1254.699219 C 766.726562 1234.988281 765.566406 1209.910156 749.75 1191.039062 C 722.964844 1159.089844 672.359375 1144.769531 632.203125 1165.210938 C 628.800781 1166.941406 625.355469 1168.609375 621.390625 1166.960938 "/>
<path fill-rule="nonzero" fill="rgb(92.576599%, 94.53125%, 84.375%)" fill-opacity="1" d="M 933.566406 687.25 C 941.671875 677.53125 953.355469 673.699219 964.308594 668.71875 C 969.660156 666.289062 971.433594 670.410156 971.839844 674.199219 C 972.574219 681.128906 974.886719 684.929688 982.683594 683.089844 C 985.527344 682.429688 989.179688 682.078125 990.769531 685.449219 C 992.3125 688.71875 989.714844 691.148438 987.796875 693.460938 C 983.445312 698.699219 979 703.871094 974.605469 709.070312 C 972.699219 711.320312 969.445312 713.390625 971.210938 716.78125 C 973.207031 720.621094 976.65625 718.230469 979.269531 717.359375 C 998.25 711.019531 1017.730469 709.839844 1037.621094 710 C 1077.109375 710.308594 1113.851562 720.96875 1149.441406 737.089844 C 1188.691406 754.859375 1224.78125 777.121094 1257.058594 806.078125 C 1275.910156 822.980469 1292.058594 841.578125 1305.820312 862.539062 C 1310.53125 869.710938 1312.988281 877.589844 1311.890625 886.300781 C 1305.921875 887.371094 1303.191406 882.808594 1299.859375 879.308594 C 1292.859375 871.941406 1286.238281 864.070312 1275.199219 860.109375 C 1275.050781 864.609375 1277.628906 867.390625 1279.238281 870.378906 C 1287.5 885.78125 1294.609375 901.660156 1299.199219 918.539062 C 1301.011719 925.191406 1304.539062 932.378906 1296.148438 937.890625 C 1292.769531 940.121094 1295.671875 943.53125 1296.5 946.121094 C 1299.621094 955.851562 1302.769531 965.578125 1306.21875 975.199219 C 1314.191406 997.359375 1315.640625 1020.289062 1314.289062 1043.511719 C 1313.960938 1049.179688 1314.429688 1056.53125 1304.941406 1055.648438 C 1297.660156 1050.058594 1297.71875 1040.910156 1294.628906 1033.410156 C 1288.460938 1018.398438 1279.398438 1005.710938 1268.75 993.640625 C 1243.78125 965.339844 1205.128906 968.390625 1182.988281 1001.730469 C 1168.78125 1023.109375 1163.210938 1047.359375 1159.058594 1072.320312 C 1157.351562 1082.578125 1160.949219 1093.589844 1154.71875 1103.140625 C 1147.941406 1103.441406 1145.609375 1098.390625 1143.660156 1093.441406 C 1131.609375 1062.839844 1127.179688 1031.109375 1130.46875 998.410156 C 1132.519531 978 1138.320312 958.03125 1139.898438 937.691406 C 1142.949219 898.570312 1132.390625 863.960938 1099.898438 838.789062 C 1089.648438 830.851562 1077.519531 827.851562 1064.851562 826.71875 C 1061.828125 826.441406 1058.75 826.769531 1055.738281 826.390625 C 1042.648438 824.71875 1038.648438 815.191406 1046.511719 804.378906 C 1049.429688 800.359375 1053.300781 797.199219 1056.558594 793.488281 C 1063.859375 785.171875 1063.578125 780.078125 1054.621094 773.769531 C 1046.460938 768.03125 1037.070312 764.449219 1027.261719 763.058594 C 1017.988281 761.75 1010.550781 758.578125 1005.789062 750.140625 C 1001.269531 742.128906 993.089844 740.988281 985.132812 740.191406 C 973.265625 739 961.65625 740.929688 950.296875 744.410156 C 945.207031 745.96875 940.265625 747.960938 935.230469 749.660156 C 930.136719 751.359375 924.726562 752.988281 920.183594 748.640625 C 915.246094 743.910156 916.976562 738.171875 918.632812 732.621094 C 919.722656 728.96875 921.179688 725.421875 922.8125 722.019531 C 928.140625 710.949219 929.453125 698.679688 933.566406 687.25 "/>
<path fill-rule="nonzero" fill="rgb(83.201599%, 78.125%, 70.506287%)" fill-opacity="1" d="M 933.566406 687.25 C 939.035156 696.070312 933.605469 704.179688 931.5 712.28125 C 929.703125 719.199219 926.101562 725.628906 923.773438 732.429688 C 922.253906 736.871094 917.851562 741.871094 921.882812 746.171875 C 926.101562 750.671875 931.101562 746.199219 935.394531 744.5 C 949.980469 738.71875 964.820312 734.609375 980.707031 735.230469 C 993.929688 735.75 1006.558594 736.5 1012.179688 751.980469 C 1014.171875 757.449219 1020.53125 757.449219 1025.929688 758.179688 C 1039.628906 760.050781 1052.289062 764.410156 1062.761719 774.160156 C 1069.539062 780.480469 1069.179688 786.679688 1063.671875 793.03125 C 1059.210938 798.191406 1054.191406 802.859375 1049.371094 807.699219 C 1046.519531 810.558594 1044.5 813.730469 1046.238281 817.859375 C 1047.839844 821.671875 1051.449219 822.128906 1054.910156 821.851562 C 1103.570312 817.859375 1134.578125 858.46875 1143.621094 903.96875 C 1148.789062 930.011719 1141.808594 954.390625 1137.609375 979.230469 C 1130.941406 1018.660156 1134.199219 1056.960938 1148.710938 1094.25 C 1149.960938 1097.449219 1151.410156 1100.558594 1154.53125 1102.460938 C 1162.691406 1109.488281 1167.691406 1128.410156 1164.171875 1138.941406 C 1140.988281 1133.449219 1123.308594 1118.980469 1108.351562 1101.808594 C 1086.691406 1076.941406 1077.941406 1046.660156 1074.738281 1014.089844 C 1070.628906 972.199219 1064.679688 930.570312 1047.210938 891.539062 C 1030.78125 854.820312 1003.75 828.160156 969.609375 808.019531 C 934.429688 787.261719 895.785156 776.660156 855.910156 770.128906 C 842.015625 767.859375 827.886719 768.960938 814.121094 772.46875 C 810.40625 773.410156 806.785156 774.890625 803.425781 771.699219 C 810.246094 764.980469 818.414062 759.808594 827.191406 756.820312 C 850.027344 749.050781 867.273438 733.398438 885.511719 718.75 C 900.429688 706.75 915.785156 695.058594 933.566406 687.25 "/>
<path fill-rule="nonzero" fill="rgb(74.414062%, 65.818787%, 59.959412%)" fill-opacity="1" d="M 1305.800781 1054.46875 C 1311.308594 1052.441406 1309.390625 1047.601562 1309.769531 1043.71875 C 1313.039062 1010.671875 1304.21875 979.761719 1293.03125 949.25 C 1290.96875 943.628906 1289.269531 937.878906 1287.441406 932.300781 C 1291.820312 929.640625 1293.988281 934.808594 1297.980469 933.679688 C 1293.769531 904.921875 1278.648438 880.289062 1265.710938 853.160156 C 1284.429688 855.109375 1294.480469 866.460938 1304.570312 877.710938 C 1307.078125 880.511719 1309.460938 883.429688 1311.898438 886.300781 C 1331.980469 921.769531 1338.820312 961.570312 1349.03125 1000.238281 C 1362.089844 1049.738281 1382.308594 1096.800781 1398.101562 1145.351562 C 1409.738281 1181.109375 1410.21875 1217.40625 1396.648438 1253.167969 C 1392.128906 1250.289062 1392.140625 1245.53125 1391.859375 1241.039062 C 1389.21875 1199.363281 1334.730469 1168.128906 1297.460938 1181.539062 C 1292.71875 1183.246094 1287.578125 1186.144531 1282.589844 1181.679688 C 1280.480469 1176.5 1274.070312 1177.058594 1271.058594 1173.070312 C 1269.78125 1168.859375 1272.960938 1167.210938 1275.421875 1164.78125 C 1301.351562 1139.21875 1309.820312 1108.148438 1304.96875 1072.53125 C 1304.191406 1066.800781 1299.441406 1060.140625 1305.800781 1054.46875 "/>
<path fill-rule="nonzero" fill="rgb(96.09375%, 54.881287%, 27.830505%)" fill-opacity="1" d="M 621.390625 1166.960938 C 662.605469 1138.839844 726.566406 1150.140625 755.808594 1190.710938 C 776.0625 1218.8125 770.785156 1249.066406 741.890625 1271.210938 C 730.90625 1279.621094 718.015625 1284.230469 705.640625 1289.886719 C 693 1301.035156 679.007812 1300.898438 664.308594 1294.855469 C 629.734375 1266.847656 609.710938 1207.195312 621.390625 1166.960938 "/>
<path fill-rule="nonzero" fill="rgb(96.09375%, 54.101562%, 27.830505%)" fill-opacity="1" d="M 1282.589844 1181.679688 C 1306.96875 1171.339844 1330.828125 1170.929688 1354.78125 1183.742188 C 1382.738281 1198.703125 1398.421875 1220.535156 1396.648438 1253.167969 C 1388.75 1274.9375 1376.449219 1293.671875 1358.429688 1308.4375 C 1344.269531 1314.1875 1329.871094 1314.226562 1315.289062 1310.265625 C 1308.550781 1308.019531 1300.371094 1308.84375 1296.011719 1301.398438 C 1287.089844 1296.394531 1277.800781 1291.953125 1269.328125 1286.285156 C 1228.339844 1258.878906 1229.480469 1213.421875 1271.621094 1187.679688 C 1275.179688 1185.507812 1278.929688 1183.671875 1282.589844 1181.679688 "/>
<path fill-rule="nonzero" fill="rgb(72.068787%, 61.521912%, 55.271912%)" fill-opacity="1" d="M 1314.730469 1305.796875 C 1329.148438 1309.175781 1343.878906 1307.230469 1358.429688 1308.4375 C 1324.328125 1344.441406 1280.480469 1362.441406 1234.058594 1375.480469 C 1153.839844 1398.007812 1071.691406 1398.460938 989.347656 1396.226562 C 985.214844 1396.121094 981.105469 1395.054688 976.984375 1394.429688 C 966.644531 1391.582031 955.734375 1390.476562 946.421875 1384.527344 C 942.492188 1382.023438 937.234375 1380.46875 938.207031 1374.070312 C 980.933594 1376.605469 1023.640625 1380.175781 1066.488281 1378.273438 C 1108.488281 1376.410156 1150.339844 1373.210938 1191.210938 1362.40625 C 1211.261719 1353.25 1232.511719 1347.382812 1253.171875 1339.902344 C 1275.578125 1331.796875 1294.578125 1317.816406 1314.730469 1305.796875 "/>
<path fill-rule="nonzero" fill="rgb(83.984375%, 80.076599%, 71.679688%)" fill-opacity="1" d="M 938.207031 1374.070312 C 949.554688 1383.859375 964.78125 1386.261719 976.980469 1394.429688 C 935.0625 1394.824219 894.167969 1387.074219 853.441406 1378.421875 C 807.304688 1368.625 762.265625 1355.179688 720.339844 1333.195312 C 700.277344 1322.679688 680.386719 1311.425781 664.308594 1294.851562 C 678.375 1295.605469 691.949219 1292.28125 705.640625 1289.886719 C 713.792969 1306.667969 730.003906 1314.058594 744.785156 1322.800781 C 783.234375 1345.535156 826.207031 1354.523438 869.394531 1362.484375 C 892.269531 1366.699219 915.269531 1370.230469 938.207031 1374.070312 "/>
<path fill-rule="nonzero" fill="rgb(96.09375%, 54.101562%, 27.830505%)" fill-opacity="1" d="M 1448.839844 268.039062 C 1448.421875 273.28125 1451.730469 277.308594 1453.359375 281.871094 C 1464.789062 313.921875 1462.351562 346.441406 1456.390625 378.980469 C 1449.039062 419.160156 1440.921875 459.191406 1431.378906 498.890625 C 1429.058594 498.96875 1428.269531 500.789062 1427.53125 502.511719 C 1399.191406 567.898438 1362.609375 628.28125 1317.78125 683.691406 C 1313.988281 688.371094 1311 693.710938 1307.640625 698.738281 C 1303.359375 704.199219 1300.789062 712.078125 1291.53125 710.710938 C 1281.910156 709.300781 1276.410156 703.011719 1272.609375 694.589844 C 1263.410156 674.210938 1260.960938 652.390625 1259.820312 630.539062 C 1258.71875 609.398438 1259.480469 588.179688 1259.589844 567.011719 C 1259.628906 560.859375 1260.308594 554.921875 1263.839844 549.679688 C 1273.011719 544.261719 1275.28125 551.921875 1276.949219 557.628906 C 1279.851562 567.53125 1283.769531 576.960938 1287.769531 586.390625 C 1291.839844 595.960938 1298.03125 604.011719 1305.410156 611.328125 C 1310.789062 616.671875 1314.941406 616.460938 1321.089844 612.011719 C 1344.230469 595.230469 1362.199219 573.898438 1378.070312 550.460938 C 1403.828125 512.390625 1418.199219 470.480469 1423.289062 424.808594 C 1425.160156 408.019531 1425.449219 391.699219 1422.480469 375.238281 C 1420.621094 364.859375 1417.429688 362.578125 1408.828125 364.839844 C 1398.121094 368.808594 1394.050781 366.628906 1392.5 355.910156 C 1391.800781 351.03125 1392.261719 346.058594 1391.960938 341.148438 C 1391.621094 335.460938 1391.519531 329.210938 1385.289062 326.589844 C 1379.640625 324.21875 1374.730469 327.75 1370.921875 331.238281 C 1359.761719 341.46875 1348.429688 351.601562 1339.398438 363.910156 C 1330.660156 375.828125 1322.429688 388.101562 1314.738281 400.75 C 1312.089844 405.109375 1309.691406 410.480469 1302.890625 409.558594 C 1298.351562 404.871094 1300.140625 399.480469 1301.851562 394.578125 C 1323.71875 331.980469 1360.761719 281.300781 1418.511719 247.03125 C 1422.390625 244.730469 1426.230469 242.078125 1431.121094 242.46875 C 1439.660156 249.171875 1442.78125 259.628906 1448.839844 268.039062 "/>
<path fill-rule="nonzero" fill="rgb(82.03125%, 43.138123%, 24.31488%)" fill-opacity="1" d="M 1266.691406 548.21875 C 1262.578125 587.589844 1262.648438 626.878906 1268.929688 666.050781 C 1270.199219 673.960938 1273.039062 681.378906 1275.769531 688.871094 C 1283.019531 708.800781 1291.550781 711.519531 1307.640625 698.75 C 1294.429688 727.988281 1282.460938 757.738281 1271.800781 788.558594 C 1263.46875 784.011719 1263.390625 776.671875 1262.511719 770.300781 C 1254.191406 710.628906 1244.289062 651.109375 1242.371094 590.75 C 1239.949219 514.820312 1256.191406 443.21875 1293.441406 376.648438 C 1311.058594 345.160156 1330.019531 314.621094 1351.769531 285.71875 C 1370.308594 261.089844 1391.480469 240.941406 1422.628906 233.96875 C 1426.980469 235.300781 1429.050781 238.878906 1431.109375 242.460938 C 1419.449219 253.988281 1404.160156 260.328125 1391.550781 270.710938 C 1354.960938 300.851562 1328.878906 338.300781 1311.109375 381.859375 C 1307.550781 390.601562 1303.78125 399.371094 1303.019531 408.980469 C 1304.539062 412.710938 1304.128906 416.441406 1302.609375 420 C 1297.140625 432.839844 1293.351562 446.289062 1288.140625 459.230469 C 1281.238281 484.980469 1274.710938 510.800781 1271.421875 537.300781 C 1270.910156 541.449219 1270.660156 545.621094 1266.691406 548.21875 "/>
<path fill-rule="nonzero" fill="rgb(96.09375%, 53.709412%, 27.830505%)" fill-opacity="1" d="M 958.71875 1896.28125 C 956.789062 1921.210938 966.332031 1944.34375 969.84375 1968.410156 C 971.148438 1977.363281 965.742188 1983.28125 957.726562 1987 C 923.710938 2002.773438 888.886719 2002.628906 853.542969 1992.433594 C 848.449219 1990.964844 843.414062 1989.234375 838.417969 1987.453125 C 830.257812 1984.546875 827.113281 1988.589844 826.445312 1995.988281 C 825.484375 2006.644531 832.324219 2014.507812 836.496094 2023.296875 C 838.0625 2026.589844 842.132812 2030.023438 838.5 2033.316406 C 835.347656 2036.164062 831.539062 2032.707031 828.132812 2031.339844 C 816.21875 2026.582031 809.296875 2017.167969 804.289062 2005.941406 C 779.324219 1983.269531 767.898438 1954.246094 764.855469 1921.386719 C 764.183594 1914.117188 763.386719 1907.085938 758.785156 1901.007812 C 757.152344 1898.855469 754.09375 1896.417969 758.953125 1893.894531 C 762.0625 1892.277344 761.871094 1888.628906 761.632812 1885.695312 C 760.734375 1874.675781 766.027344 1874.679688 773.953125 1878.242188 C 780.523438 1881.199219 787.210938 1883.914062 793.964844 1886.402344 C 798.203125 1887.964844 801.894531 1888.039062 799.761719 1881.527344 C 799.414062 1880.46875 799.449219 1879.277344 799.363281 1878.136719 C 798.085938 1861.121094 800.019531 1859.738281 815.753906 1866.394531 C 827.796875 1871.496094 827.796875 1871.496094 827.859375 1858.144531 C 827.925781 1842.796875 832.394531 1839.863281 845.488281 1847.730469 C 855.730469 1853.882812 865.246094 1861.253906 875.714844 1868.527344 C 878.878906 1858.847656 874.023438 1851.070312 873.957031 1842.949219 C 873.929688 1839.171875 873.050781 1835.394531 873.171875 1831.636719 C 873.4375 1823.347656 877.019531 1821.589844 883.832031 1826.632812 C 898.070312 1837.175781 909.480469 1850.191406 918.644531 1865.328125 C 920.597656 1868.558594 921.550781 1874.578125 927.035156 1872.816406 C 931.609375 1871.347656 931.203125 1866.171875 931.222656 1861.984375 C 931.242188 1857.453125 931.226562 1852.921875 931.226562 1845.742188 C 947.074219 1860.863281 950.597656 1879.855469 958.71875 1896.28125 "/>
<path fill-rule="nonzero" fill="rgb(96.09375%, 54.101562%, 27.43988%)" fill-opacity="1" d="M 1209.730469 1864.507812 C 1217.71875 1864.789062 1224.089844 1869.140625 1230.441406 1873.195312 C 1235.660156 1876.523438 1238.640625 1881.71875 1236.179688 1887.863281 C 1231.519531 1899.527344 1233.890625 1910.746094 1236.441406 1922.335938 C 1238.621094 1932.265625 1239.320312 1942.511719 1240.828125 1952.597656 C 1241.421875 1956.496094 1240.96875 1959.59375 1236.359375 1960.070312 C 1227.871094 1960.949219 1224.359375 1966.96875 1221.328125 1973.824219 C 1215.171875 1987.753906 1210.871094 1987.09375 1196.621094 1983.539062 C 1176.039062 1978.394531 1154.179688 1973.453125 1133.859375 1985.738281 C 1111.300781 1999.375 1095.058594 1997.179688 1077.011719 1978.6875 C 1065.191406 1966.574219 1062.160156 1951.605469 1061.28125 1935.996094 C 1060.710938 1925.8125 1059.351562 1917.324219 1048.328125 1913.398438 C 1046.160156 1912.625 1044.761719 1909.652344 1043 1907.695312 C 1048.898438 1890.136719 1059.480469 1875.410156 1071.011719 1861.253906 C 1074.910156 1856.457031 1077.71875 1857.191406 1079.601562 1862.929688 C 1084.160156 1876.78125 1090.03125 1876.921875 1099.53125 1863.699219 C 1108.160156 1851.683594 1116.011719 1839.078125 1126.339844 1828.359375 C 1128.089844 1826.554688 1129.539062 1823.324219 1132.570312 1824.203125 C 1135.960938 1825.191406 1136.21875 1828.8125 1136.410156 1831.734375 C 1137.058594 1841.890625 1137.441406 1852.0625 1138.019531 1864.175781 C 1144.480469 1859.738281 1147.398438 1854.121094 1151.339844 1849.46875 C 1163.71875 1834.839844 1177.378906 1821.996094 1196.300781 1815.980469 C 1203.230469 1813.773438 1205.019531 1815.835938 1205.058594 1822.546875 C 1205.121094 1833.324219 1202.691406 1843.714844 1199.96875 1853.875 C 1197.261719 1864.03125 1200.558594 1866.394531 1209.730469 1864.507812 "/>
<path fill-rule="nonzero" fill="rgb(96.09375%, 54.101562%, 27.43988%)" fill-opacity="1" d="M 663.796875 678.480469 C 615.074219 617.410156 568.714844 554.859375 539.003906 481.71875 C 535.550781 473.210938 534.769531 463.679688 529.132812 456.011719 C 525.164062 433.769531 526.53125 411.488281 530.070312 389.480469 C 536.648438 348.621094 547.5 308.871094 564.273438 270.910156 C 566.53125 265.789062 568.539062 260.328125 573.203125 256.640625 C 585.835938 268.089844 600.632812 276.640625 613.519531 287.941406 C 637.484375 308.960938 656.378906 333.898438 673.550781 360.230469 C 703.066406 405.488281 723.625 454.75 734.03125 507.820312 C 742.800781 552.570312 746.667969 597.949219 743.972656 643.519531 C 742.648438 665.859375 737.808594 687.878906 727.058594 707.988281 C 719.488281 722.148438 707.664062 723.53125 698.992188 710 C 689.984375 695.96875 676.152344 688.261719 663.796875 678.480469 "/>
<path fill-rule="nonzero" fill="rgb(92.96875%, 93.75%, 84.375%)" fill-opacity="1" d="M 783.175781 685.019531 C 782.238281 667.46875 782.054688 649.871094 778.851562 632.511719 C 778.449219 583.03125 774.316406 533.929688 761.316406 486.019531 C 746.21875 430.421875 716.410156 381.921875 685.835938 333.921875 C 671.558594 311.511719 656.757812 289.449219 637.902344 270.429688 C 625.125 257.550781 610.71875 247.519531 592.949219 242.878906 C 604.003906 231.21875 623.300781 230.21875 639.402344 239.261719 C 654.070312 247.5 664.46875 259.921875 674.570312 272.621094 C 713.730469 321.859375 748.585938 374.140625 781.433594 427.691406 C 793.003906 446.550781 803.335938 466.601562 808.179688 488.71875 C 808.363281 504.730469 814.902344 519.589844 816.21875 535.519531 C 818.644531 564.949219 820.574219 594.359375 819.304688 623.859375 C 818.46875 643.46875 818.316406 663.148438 816.097656 682.691406 C 815.1875 690.679688 812.257812 697.460938 804.160156 700.421875 C 797.621094 702.808594 792.238281 699.988281 787.9375 695.230469 C 785.386719 692.421875 784.617188 688.5 783.175781 685.019531 "/>
<path fill-rule="nonzero" fill="rgb(87.109375%, 83.59375%, 74.804688%)" fill-opacity="1" d="M 651.273438 684.339844 C 652.191406 708.339844 661.71875 729.5 672.785156 750.199219 C 674.398438 753.210938 679.578125 756.148438 676.101562 759.839844 C 672.824219 763.320312 669.132812 759.039062 666.121094 757.378906 C 661.179688 754.640625 656.722656 750.980469 650.636719 751.191406 C 645.175781 745.691406 642.015625 738.738281 638.917969 731.859375 C 618.210938 685.910156 592.984375 642.140625 573.136719 595.769531 C 565.097656 577 557.289062 558.128906 549.570312 539.21875 C 547.46875 534.070312 544.375 528.78125 548.15625 523.019531 C 575.996094 580.96875 612.648438 633.289062 651.273438 684.339844 "/>
<path fill-rule="nonzero" fill="rgb(81.639099%, 78.514099%, 69.726562%)" fill-opacity="1" d="M 783.175781 685.019531 C 784.261719 686.550781 785.414062 688.050781 786.425781 689.628906 C 790.054688 695.289062 796.410156 698.179688 801.839844 697.269531 C 808.453125 696.160156 812.054688 689.410156 812.453125 682.609375 C 814.726562 644.109375 816.4375 605.660156 813.378906 567.019531 C 811.644531 545.148438 809.90625 523.398438 806.167969 501.789062 C 805.421875 497.46875 804.808594 492.648438 808.179688 488.71875 C 820.199219 516.621094 826.628906 545.808594 828.316406 576.089844 C 825.617188 582.808594 824.273438 589.769531 824.089844 597.011719 C 823.371094 625.398438 822.472656 653.78125 819.597656 682.050781 C 819.476562 683.179688 819.558594 684.339844 819.394531 685.460938 C 817.464844 698.980469 809.851562 708.179688 800.863281 707.921875 C 791.519531 707.660156 785.199219 699.46875 783.175781 685.019531 "/>
<path fill-rule="nonzero" fill="rgb(76.5625%, 69.334412%, 63.084412%)" fill-opacity="1" d="M 1378.261719 1782.257812 C 1379.710938 1815.601562 1371.488281 1843.535156 1355.328125 1868.503906 C 1342.910156 1887.695312 1324.921875 1900.859375 1301.890625 1906.125 C 1295.75 1907.53125 1294.351562 1904.601562 1294.121094 1899.753906 C 1293.769531 1892.191406 1297.308594 1885.71875 1300.890625 1879.5625 C 1305.609375 1871.449219 1313.171875 1862.945312 1306.710938 1853.996094 C 1298.949219 1843.253906 1288.75 1833.710938 1273.039062 1838.402344 C 1267.730469 1839.984375 1263.859375 1839.023438 1260.121094 1834.425781 C 1252.96875 1825.632812 1243.769531 1818.675781 1237.648438 1808.8125 C 1232.730469 1800.863281 1232.25 1794.445312 1237.988281 1786.089844 C 1257.929688 1757.070312 1280.160156 1729.535156 1295.738281 1697.640625 C 1301.558594 1685.722656 1309.589844 1675.132812 1317.148438 1664.265625 C 1320.398438 1659.589844 1323.191406 1659.097656 1326.71875 1663.765625 C 1349.160156 1693.488281 1371.941406 1723.019531 1377.210938 1761.601562 C 1377.460938 1763.480469 1378.171875 1765.320312 1378.21875 1767.179688 C 1378.351562 1773.257812 1378.261719 1779.335938 1378.261719 1782.257812 "/>
<path fill-rule="nonzero" fill="rgb(85.15625%, 80.859375%, 72.068787%)" fill-opacity="1" d="M 1416.519531 545.75 C 1420.339844 547.769531 1423.539062 549.929688 1422.679688 555.238281 C 1416.570312 593.109375 1411.488281 631.140625 1403.539062 668.679688 C 1403.171875 670.421875 1401.878906 671.949219 1401.019531 673.570312 C 1388.511719 702.46875 1373.160156 729.949219 1359.289062 758.179688 C 1352.148438 772.730469 1342.03125 784.011719 1325.359375 787.871094 C 1307.808594 791.929688 1297 781.230469 1301.058594 763.570312 C 1307.800781 734.328125 1321.941406 708.398438 1337.191406 683.011719 C 1340.890625 676.851562 1344.511719 670.601562 1348.910156 664.878906 C 1376.488281 628.03125 1396.808594 587.070312 1416.519531 545.75 "/>
<path fill-rule="nonzero" fill="rgb(70.117188%, 58.789062%, 52.539062%)" fill-opacity="1" d="M 1348.910156 664.878906 C 1341.019531 680.339844 1333.550781 696.039062 1325.109375 711.199219 C 1315.230469 728.949219 1309.328125 748.050781 1304.339844 767.519531 C 1301.648438 778.03125 1310.550781 786.539062 1321.320312 784.578125 C 1337.820312 781.578125 1348.070312 771.371094 1355.191406 756.980469 C 1363.941406 739.289062 1372.460938 721.449219 1381.808594 704.070312 C 1387.5 693.511719 1394.570312 683.71875 1401.019531 673.570312 C 1389.578125 719.488281 1368.53125 761.621094 1349.671875 804.640625 C 1341.621094 822.988281 1331.789062 840.71875 1328.089844 860.761719 C 1316.488281 840.269531 1302.671875 821.378906 1286.550781 804.21875 C 1283.789062 801.28125 1281.648438 798.570312 1283.261719 794.25 C 1299.75 749.988281 1314.851562 705.058594 1345.429688 667.738281 C 1346.371094 666.601562 1347.738281 665.828125 1348.910156 664.878906 "/>
<path fill-rule="nonzero" fill="rgb(21.18988%, 9.790039%, 16.868591%)" fill-opacity="1" d="M 851.21875 1036.421875 C 850.949219 1065.230469 847.039062 1087.898438 837.320312 1109.269531 C 821.460938 1144.128906 793.378906 1161.160156 759.066406 1157.179688 C 725.539062 1153.289062 694.371094 1125.871094 687.464844 1092.789062 C 678.324219 1049.058594 693.78125 1012.269531 722.09375 980 C 732.613281 968.011719 745.378906 958.199219 759.808594 951.058594 C 787.488281 937.359375 815.292969 944.648438 832.53125 970.308594 C 847.039062 991.898438 850.8125 1016.480469 851.21875 1036.421875 "/>
<path fill-rule="nonzero" fill="rgb(20.776367%, 9.790039%, 16.868591%)" fill-opacity="1" d="M 1305.800781 1054.46875 C 1309.820312 1075.308594 1311.910156 1096.160156 1306.789062 1117.171875 C 1301.25 1139.910156 1289.699219 1158.738281 1271.058594 1173.070312 C 1243.769531 1187.667969 1216.808594 1189.871094 1190.328125 1171.050781 C 1178.628906 1162.738281 1171.570312 1150.710938 1164.160156 1138.929688 C 1160.949219 1126.78125 1157.738281 1114.609375 1154.53125 1102.449219 C 1152.019531 1063.960938 1158.96875 1027.691406 1181.691406 995.808594 C 1205.410156 962.539062 1242.511719 959.980469 1271.070312 988.988281 C 1289.140625 1007.339844 1298.171875 1030.539062 1305.800781 1054.46875 "/>
<path fill-rule="nonzero" fill="rgb(26.660156%, 14.892578%, 19.604492%)" fill-opacity="1" d="M 874.300781 1255.378906 C 875.832031 1253.238281 877.40625 1251.171875 880.449219 1251.355469 C 892.734375 1261.0625 905.761719 1269.183594 921.941406 1270.304688 C 943.902344 1271.835938 965.96875 1274.203125 985.953125 1261.320312 C 994.664062 1255.703125 999.824219 1245.671875 996.515625 1238.378906 C 993.984375 1232.800781 988.308594 1229.761719 983.746094 1225.886719 C 965.15625 1216.585938 946.539062 1207.335938 927.992188 1197.953125 C 920.734375 1194.277344 913.546875 1189.894531 913.347656 1180.691406 C 913.132812 1170.828125 919.789062 1164.910156 927.691406 1160.421875 C 939.179688 1153.898438 952.097656 1151.671875 964.835938 1150.96875 C 1001.230469 1148.96875 1037.648438 1148.808594 1073.480469 1157.320312 C 1079.371094 1158.710938 1085.109375 1160.621094 1090.269531 1164 C 1097.238281 1168.578125 1102.859375 1174.078125 1102.269531 1183.203125 C 1101.71875 1191.796875 1096.078125 1196.949219 1088.800781 1200.058594 C 1070.089844 1208.070312 1051.199219 1215.667969 1032.398438 1223.46875 C 1030.671875 1224.1875 1029.050781 1225.183594 1027.371094 1226.050781 C 1025.210938 1231.84375 1016.820312 1232.007812 1015.988281 1239.4375 C 1014.910156 1249.003906 1018.828125 1257.339844 1028.621094 1262.921875 C 1038.011719 1268.285156 1048.480469 1270.269531 1058.960938 1272.066406 C 1074.421875 1274.710938 1090.019531 1274.09375 1105.480469 1272.738281 C 1117.46875 1271.683594 1127.988281 1266.300781 1136.71875 1257.800781 C 1138.050781 1257.878906 1139.378906 1257.964844 1140.710938 1258.046875 C 1148.75 1261.378906 1147.210938 1267.394531 1144.5 1273.171875 C 1141.089844 1280.4375 1134.628906 1284.355469 1127.398438 1287.300781 C 1110.089844 1294.355469 1091.949219 1294.929688 1073.699219 1294.226562 C 1060.640625 1293.726562 1049.808594 1295.960938 1038.320312 1304.6875 C 1016.628906 1321.164062 993.367188 1323.824219 967.105469 1300.972656 C 961.511719 1296.105469 955.878906 1294.4375 948.714844 1294.003906 C 930.964844 1292.9375 913.1875 1291.335938 896.382812 1284.707031 C 888.882812 1281.746094 881.9375 1277.785156 876.742188 1271.542969 C 872.824219 1266.835938 869.164062 1261.652344 874.300781 1255.378906 "/>
<path fill-rule="nonzero" fill="rgb(74.804688%, 67.381287%, 61.914062%)" fill-opacity="1" d="M 874.300781 1255.378906 C 874.390625 1265.996094 881.339844 1271.636719 889.625 1276.101562 C 908.847656 1286.460938 929.925781 1288.875 951.191406 1288.875 C 958.621094 1288.871094 963.449219 1290.378906 968.695312 1295.816406 C 991.4375 1319.414062 1024.691406 1317.859375 1044.671875 1292.140625 C 1048.140625 1287.671875 1051.03125 1289.414062 1054.320312 1289.523438 C 1076.671875 1290.269531 1099.078125 1291.828125 1120.828125 1284.78125 C 1127.671875 1282.566406 1134.480469 1280.011719 1139.351562 1274.234375 C 1143.609375 1269.179688 1145.75 1263.902344 1140.710938 1258.046875 C 1142.230469 1257.964844 1143.820312 1257.53125 1145.238281 1257.847656 C 1153.941406 1259.777344 1163.988281 1262.316406 1165.160156 1272.042969 C 1166.308594 1281.695312 1157.601562 1286.714844 1149.261719 1290.425781 C 1125.828125 1300.839844 1100.5 1299.949219 1075.859375 1303.328125 C 1056.828125 1305.9375 1038.710938 1310.363281 1021.089844 1319.890625 C 1005.140625 1328.515625 986.421875 1333.230469 966.945312 1327.789062 C 934.992188 1318.859375 906.195312 1302.292969 875.25 1290.988281 C 868.804688 1288.632812 863.136719 1284.757812 858.585938 1279.414062 C 854.105469 1274.160156 848.71875 1268.925781 853.851562 1261.511719 C 858.839844 1254.304688 865.394531 1250.425781 874.300781 1255.378906 "/>
<path fill-rule="nonzero" fill="rgb(72.851562%, 62.693787%, 56.054688%)" fill-opacity="1" d="M 1136.71875 1257.796875 C 1136.359375 1265.285156 1131.800781 1269.660156 1125.289062 1271.84375 C 1089.910156 1283.695312 1055.289062 1281.753906 1022.070312 1264.550781 C 1012.289062 1259.488281 1006.800781 1241.734375 1011.371094 1232.472656 C 1014.5 1226.140625 1021.96875 1228.121094 1027.371094 1226.050781 C 1040.378906 1252.296875 1062.519531 1263.554688 1090.828125 1264.769531 C 1096.660156 1265.019531 1102.050781 1264.171875 1107.191406 1261.082031 C 1116.460938 1255.527344 1126.339844 1254.097656 1136.71875 1257.796875 "/>
<path fill-rule="nonzero" fill="rgb(78.90625%, 72.068787%, 64.646912%)" fill-opacity="1" d="M 983.742188 1225.890625 C 985.515625 1226.441406 987.4375 1226.71875 989.03125 1227.59375 C 993.359375 1229.953125 1000.910156 1227.808594 1001.878906 1234.515625 C 1003.109375 1243.101562 1003.339844 1251.992188 996.378906 1259.101562 C 986.914062 1268.761719 974.992188 1273.785156 962.078125 1275.429688 C 941.214844 1278.085938 920.53125 1276.5 900.324219 1269.777344 C 890.660156 1266.566406 883.476562 1261.390625 880.449219 1251.355469 C 893.1875 1242.070312 904.105469 1248.824219 914.632812 1255.667969 C 935.355469 1269.140625 973.417969 1258.710938 984.136719 1236.457031 C 985.976562 1232.648438 986.207031 1229.328125 983.742188 1225.890625 "/>
<path fill-rule="nonzero" fill="rgb(83.59375%, 78.90625%, 70.896912%)" fill-opacity="1" d="M 1314.730469 1305.796875 C 1305.660156 1320.789062 1290.03125 1327.433594 1275.589844 1334.824219 C 1251.058594 1347.386719 1224.488281 1354.902344 1197.949219 1362.136719 C 1195.839844 1362.710938 1193.460938 1362.339844 1191.21875 1362.410156 C 1192.28125 1357.988281 1196.078125 1357.082031 1199.621094 1355.644531 C 1226.351562 1344.785156 1252.179688 1332.050781 1276.941406 1317.265625 C 1284.011719 1313.050781 1290.75 1308.011719 1296.011719 1301.394531 C 1302.640625 1301.175781 1308.46875 1304.417969 1314.730469 1305.796875 "/>
<path fill-rule="nonzero" fill="rgb(19.993591%, 12.156677%, 18.041992%)" fill-opacity="1" d="M 831.347656 890.339844 C 831.148438 890.308594 833.894531 890.199219 836.378906 890.960938 C 839.605469 891.941406 843 893.269531 842.859375 897.691406 C 842.746094 901.179688 840.789062 903.171875 837.59375 904.238281 C 824.378906 908.671875 811.21875 913.25 797.9375 917.46875 C 795.285156 918.320312 791.546875 919.261719 789.992188 915.53125 C 788.363281 911.621094 789.847656 908.03125 792.859375 905.25 C 802.921875 895.96875 814.332031 889.808594 831.347656 890.339844 "/>
<path fill-rule="nonzero" fill="rgb(20.776367%, 11.376953%, 18.041992%)" fill-opacity="1" d="M 1193.128906 901.339844 C 1208.550781 901.839844 1226.191406 917.261719 1229.121094 932.03125 C 1229.789062 935.390625 1229.261719 938.171875 1226.691406 940.089844 C 1223.949219 942.128906 1220.871094 941.511719 1218.339844 939.351562 C 1207.691406 930.269531 1196.828125 921.449219 1185.039062 913.871094 C 1182.109375 911.988281 1180.949219 909.371094 1182.140625 906.109375 C 1184.199219 900.441406 1189.230469 901.53125 1193.128906 901.339844 "/>
<path fill-rule="nonzero" fill="rgb(97.264099%, 62.304688%, 29.80957%)" fill-opacity="1" d="M 1285 456.980469 C 1289.390625 440.371094 1295.269531 424.328125 1303.019531 408.980469 C 1313.859375 393.160156 1324.679688 377.328125 1335.578125 361.539062 C 1344.910156 348.019531 1357.351562 337.390625 1369.308594 326.441406 C 1374.089844 322.070312 1380.46875 318.078125 1387.96875 321.601562 C 1395.898438 325.308594 1396.171875 332.761719 1396.550781 339.949219 C 1396.890625 346.359375 1396.109375 352.898438 1397.011719 359.210938 C 1397.941406 365.691406 1401.339844 367.171875 1405.738281 361.160156 C 1418.949219 356.160156 1421.761719 357.710938 1423.53125 371.21875 C 1429.671875 417.800781 1421.179688 462.191406 1403.289062 505.121094 C 1399.21875 514.871094 1395.921875 525.019531 1389.550781 533.679688 C 1382.53125 543.21875 1375.160156 544.699219 1366.71875 536.601562 C 1353.441406 523.871094 1336.960938 515.859375 1322.289062 505.199219 C 1312.25 497.898438 1302.941406 490.371094 1297.480469 479.28125 C 1293.691406 471.601562 1285.039062 466.679688 1285 456.980469 "/>
<path fill-rule="nonzero" fill="rgb(96.484375%, 55.664062%, 28.637695%)" fill-opacity="1" d="M 1285 456.980469 C 1292.820312 464.121094 1299.109375 472.320312 1304.429688 481.589844 C 1314.328125 498.820312 1333.078125 505.75 1348.210938 516.769531 C 1355.53125 522.089844 1363.808594 526.03125 1369.46875 533.460938 C 1374.738281 540.378906 1379.589844 539.359375 1385.300781 533.429688 C 1396.339844 521.96875 1399.898438 506.828125 1405.210938 492.851562 C 1415.191406 466.550781 1420.878906 439.230469 1422.199219 410.800781 C 1422.769531 398.648438 1421.980469 386.761719 1421.71875 374.738281 C 1421.421875 360.441406 1420.019531 359.179688 1405.738281 361.160156 C 1416.75 354.160156 1421.238281 355.640625 1424.339844 367.609375 C 1433.101562 401.421875 1427.339844 434.648438 1419.179688 467.480469 C 1408.398438 510.871094 1387.628906 549.359375 1359.230469 583.789062 C 1347.308594 598.25 1331.71875 608.609375 1317.578125 620.589844 C 1313.730469 623.851562 1310.320312 622.320312 1306.578125 619.140625 C 1288.691406 603.941406 1279.828125 583.628906 1273.710938 561.820312 C 1272.261719 556.621094 1271.75 551.371094 1266.691406 548.21875 C 1267.480469 516.738281 1274.671875 486.539062 1285 456.980469 "/>
<path fill-rule="nonzero" fill="rgb(97.264099%, 62.304688%, 29.417419%)" fill-opacity="1" d="M 594.089844 385.140625 C 594.089844 380.171875 593.390625 375.480469 594.21875 371.089844 C 596.917969 356.71875 608.347656 352.941406 619.175781 362.648438 C 634.667969 376.539062 645.628906 393.820312 655.554688 411.828125 C 658.480469 417.160156 660.835938 422.800781 663.820312 428.089844 C 667.539062 434.679688 669.9375 441.890625 680.539062 434.070312 C 688.304688 428.351562 692.503906 437.699219 695.054688 443.558594 C 700.21875 455.410156 702.457031 468.230469 705.585938 480.761719 C 711.035156 502.570312 711.394531 525.019531 714.515625 547.121094 C 715.925781 557.101562 712.375 566.671875 711.933594 576.511719 C 711.777344 579.910156 709.328125 582.75 705.714844 580.699219 C 689.609375 571.609375 672.085938 575.421875 655.390625 576.078125 C 640.96875 576.648438 629.277344 568.789062 615.734375 567.519531 C 613.0625 567.261719 610.304688 563.539062 608.332031 560.871094 C 583.253906 526.878906 568.644531 488.558594 561.808594 447.121094 C 560.085938 436.671875 558.65625 426.160156 557.464844 415.640625 C 555.664062 399.71875 563.726562 392.179688 577.351562 396.359375 C 582.453125 397.921875 587.117188 404.730469 592.761719 400.039062 C 597.449219 396.140625 592.046875 389.828125 594.089844 385.140625 "/>
<path fill-rule="nonzero" fill="rgb(41.184998%, 26.268005%, 27.830505%)" fill-opacity="1" d="M 726.335938 1031.558594 C 718.601562 1046.589844 719.730469 1062.929688 719.425781 1079.03125 C 719.316406 1084.601562 724.121094 1082.210938 727.039062 1082.621094 C 713.597656 1102.390625 728.601562 1119.03125 731.589844 1137.808594 C 717.464844 1134.929688 709.742188 1124.570312 703.515625 1113.851562 C 684.566406 1081.261719 689.457031 1048.429688 704.761719 1016.070312 C 706.464844 1012.480469 709.417969 1008.730469 714.71875 1011.28125 C 721.429688 1016.421875 726.328125 1022.589844 726.335938 1031.558594 "/>
<path fill-rule="nonzero" fill="rgb(96.09375%, 97.264099%, 95.3125%)" fill-opacity="1" d="M 726.335938 1031.558594 C 719.414062 1026.550781 716.375 1019.320312 714.71875 1011.28125 C 720.507812 990.058594 732.636719 979.511719 751.453125 979.328125 C 770.660156 979.128906 780.59375 995.53125 771.683594 1012.71875 C 763.578125 1028.378906 745.425781 1035.910156 726.335938 1031.558594 "/>
<path fill-rule="nonzero" fill="rgb(38.818359%, 25.097656%, 26.660156%)" fill-opacity="1" d="M 1273.828125 1008.46875 C 1283.78125 1017.640625 1289.75 1028.769531 1293.960938 1040.890625 C 1306.289062 1076.339844 1307.410156 1111.359375 1288.578125 1145.101562 C 1281.589844 1157.621094 1271.300781 1167.050781 1257.46875 1171.988281 C 1254.238281 1173.140625 1250.148438 1174.621094 1247.960938 1171.601562 C 1245.699219 1168.488281 1249.921875 1166.539062 1251.601562 1164.238281 C 1265.601562 1145.078125 1272.089844 1123.019531 1275.578125 1100.03125 C 1280.199219 1069.589844 1279.339844 1039.160156 1273.828125 1008.46875 "/>
<path fill-rule="nonzero" fill="rgb(91.40625%, 91.796875%, 90.625%)" fill-opacity="1" d="M 1221.441406 1029.789062 C 1213.519531 1029.480469 1208.339844 1025.089844 1208.179688 1016.628906 C 1208.011719 1007.929688 1213.699219 1003.441406 1221.878906 1003.300781 C 1230.121094 1003.160156 1235.960938 1007.570312 1235.761719 1016.28125 C 1235.558594 1024.460938 1230.691406 1029.378906 1221.441406 1029.789062 "/>
<path fill-rule="nonzero" fill="rgb(96.484375%, 61.131287%, 52.929688%)" fill-opacity="1" d="M 996.472656 1157.921875 C 1021.789062 1159.25 1047.328125 1158.769531 1071.96875 1166.230469 C 1074.140625 1166.890625 1076.308594 1167.578125 1078.398438 1168.410156 C 1085.171875 1171.121094 1092.679688 1173.839844 1092.871094 1182.449219 C 1093.058594 1190.71875 1084.921875 1191.882812 1079.339844 1194.152344 C 1060.441406 1201.859375 1041.308594 1209 1022.21875 1216.226562 C 1009.558594 1221.019531 997.039062 1220.6875 984.734375 1214.722656 C 966.675781 1205.953125 948.417969 1197.570312 930.542969 1188.453125 C 919.246094 1182.691406 919.253906 1176.660156 930.136719 1169.480469 C 945.074219 1159.621094 962.511719 1159.75 979.398438 1158.011719 C 985.03125 1157.429688 990.777344 1157.921875 996.472656 1157.921875 "/>
<path fill-rule="nonzero" fill="rgb(91.796875%, 71.679688%, 65.429688%)" fill-opacity="1" d="M 1035.5 1286.226562 C 1012.910156 1305.359375 992.660156 1305.519531 976.027344 1286.378906 C 978.796875 1285.296875 982.132812 1284.957031 984.011719 1283.128906 C 1002.421875 1265.242188 1018.871094 1276.996094 1035.5 1286.226562 "/>
</svg>
